<svg width="226" height="190" viewBox="0 0 226 190" fill="none" xmlns="http://www.w3.org/2000/svg">
<g clip-path="url(#clip0_136_2547)">
<path d="M91.4936 3.3619C151.19 -12.1733 170.858 28.9201 195.484 68.8383C220.111 108.756 245.767 158.503 203.28 189.736H26.2865C26.2865 189.736 0.441132 183.154 -0.000130663 148.232C-0.320571 122.542 25.2727 119.059 33.6461 79.6517C42.0301 40.25 61.1147 11.2665 91.4936 3.3619Z" fill="#F17199"/>
<path opacity="0.7" d="M91.4936 3.3619C151.19 -12.1733 170.858 28.9201 195.484 68.8383C220.111 108.756 245.767 158.503 203.28 189.736H26.2865C26.2865 189.736 0.441132 183.154 -0.000130663 148.232C-0.320571 122.542 25.2727 119.059 33.6461 79.6517C42.0301 40.25 61.1147 11.2665 91.4936 3.3619Z" fill="white"/>
<path d="M200.838 128.223H187.116C186.754 128.223 186.46 128.518 186.46 128.882V133.098C186.46 133.461 186.754 133.756 187.116 133.756H188.009C187.684 134.341 187.174 135.285 187.3 135.285C187.442 135.285 188.876 134.246 189.538 133.756H200.832C201.195 133.756 201.489 133.461 201.489 133.098V128.882C201.489 128.518 201.195 128.223 200.832 128.223H200.838Z" stroke="#263238" stroke-linecap="round" stroke-linejoin="round"/>
<path d="M197.302 136.238H211.018C211.381 136.238 211.675 136.533 211.675 136.897V141.113C211.675 141.476 211.381 141.771 211.018 141.771H210.125C210.451 142.356 210.96 143.3 210.834 143.3C210.692 143.3 209.258 142.262 208.596 141.771H197.302C196.94 141.771 196.64 141.476 196.64 141.113V136.897C196.64 136.533 196.934 136.238 197.302 136.238Z" stroke="#263238" stroke-linecap="round" stroke-linejoin="round"/>
<path d="M197.302 119.554H211.018C211.381 119.554 211.675 119.849 211.675 120.213V124.429C211.675 124.792 211.381 125.087 211.018 125.087H210.125C210.451 125.672 210.96 126.616 210.834 126.616C210.692 126.616 209.258 125.577 208.596 125.087H197.302C196.94 125.087 196.64 124.792 196.64 124.429V120.213C196.64 119.849 196.934 119.554 197.302 119.554Z" stroke="#263238" stroke-linecap="round" stroke-linejoin="round"/>
<path d="M33.6515 94.8657C34.0245 92.6471 32.375 91.0451 30.4471 91.0609C28.5717 91.0767 26.9117 94.1964 26.9117 94.1964C26.9117 94.1964 24.6791 91.962 22.725 91.7618C20.692 91.5563 18.9743 93.701 19.8936 96.4993C21.2226 100.541 27.3267 103.187 27.3267 103.187C27.3267 103.187 32.9055 99.3291 33.6567 94.8604L33.6515 94.8657Z" stroke="#263238" stroke-linecap="round" stroke-linejoin="round"/>
<path d="M20.4084 102.702C20.1352 101.542 19.0058 101.1 18.0655 101.5C17.1514 101.895 16.9781 103.761 16.9781 103.761C16.9781 103.761 15.4284 103.128 14.4356 103.434C13.4007 103.756 12.9962 105.152 14.0206 106.332C15.4967 108.035 19.0215 108.071 19.0215 108.071C19.0215 108.071 20.9599 105.036 20.4136 102.702H20.4084Z" stroke="#263238" stroke-linecap="round" stroke-linejoin="round"/>
<path d="M23.7756 105.31C18.5015 110.743 21.9633 118.311 27.4948 118.216C33.7618 118.11 33.2575 107.903 30.3105 112.604C27.3635 117.304 34.7441 125.261 38.6157 120.672" stroke="#263238" stroke-linecap="round" stroke-linejoin="round"/>
<path d="M145.491 55.9066C145.491 43.1591 131.801 32.8252 114.912 32.8252C98.0233 32.8252 84.3389 43.1591 84.3389 55.9066C84.3389 67.9216 96.5052 77.7918 112.044 78.8826L114.917 86.4025L117.791 78.8826C133.33 77.7918 145.496 67.9216 145.496 55.9066H145.491Z" fill="white" stroke="#263238" stroke-linecap="round" stroke-linejoin="round"/>
<path d="M117.071 52.3389V48.6712L115.064 48.5131C114.87 47.7332 114.56 47.0007 114.161 46.3261L115.469 44.7926L112.884 42.1947L111.356 43.5068C110.683 43.1063 109.953 42.7954 109.176 42.6004L109.018 40.5874H105.362L105.204 42.6004C104.427 42.7954 103.697 43.1011 103.024 43.5068L101.496 42.1947L98.9059 44.7926L100.214 46.3261C99.8146 47.0007 99.5047 47.7332 99.3103 48.5131L97.3036 48.6712V52.3389L99.3103 52.497C99.5047 53.2769 99.8146 54.0094 100.214 54.6839L98.9059 56.2227L101.496 58.8154L103.024 57.5032C103.697 57.9037 104.427 58.2146 105.204 58.4096L105.362 60.4227H109.018L109.176 58.4096C109.953 58.2146 110.683 57.909 111.356 57.5032L112.884 58.8154L115.469 56.2227L114.161 54.6839C114.56 54.0094 114.87 53.2769 115.064 52.497L117.071 52.3389ZM107.185 54.0357C105.241 54.0357 103.665 52.4548 103.665 50.505C103.665 48.5552 105.241 46.9743 107.185 46.9743C109.128 46.9743 110.704 48.5552 110.704 50.505C110.704 52.4548 109.128 54.0357 107.185 54.0357Z" fill="#F17199" stroke="#263238" stroke-linecap="round" stroke-linejoin="round"/>
<path d="M132.531 56.8444V54.004L130.976 53.8828C130.824 53.2768 130.587 52.713 130.278 52.1913L131.286 51.0056L129.285 48.9978L128.103 50.0096C127.583 49.6987 127.021 49.4615 126.416 49.3087L126.29 47.7542H123.464L123.343 49.3087C122.739 49.4615 122.177 49.6987 121.657 50.0096L120.475 48.9978L118.474 51.0056L119.482 52.1913C119.172 52.713 118.936 53.2768 118.784 53.8828L117.234 54.004V56.8444L118.784 56.9656C118.936 57.5664 119.172 58.1355 119.482 58.6572L118.474 59.8429L120.475 61.8507L121.657 60.8389C122.177 61.1498 122.739 61.3869 123.343 61.5398L123.464 63.0943H126.29L126.416 61.5398C127.015 61.3869 127.583 61.1498 128.103 60.8389L129.285 61.8507L131.286 59.8429L130.278 58.6572C130.587 58.1355 130.824 57.5716 130.976 56.9656L132.531 56.8444ZM124.883 58.1566C123.38 58.1566 122.161 56.934 122.161 55.4269C122.161 53.9197 123.38 52.6972 124.883 52.6972C126.385 52.6972 127.604 53.9197 127.604 55.4269C127.604 56.934 126.385 58.1566 124.883 58.1566Z" fill="#F17199"/>
<mask id="mask0_136_2547" style="mask-type:luminance" maskUnits="userSpaceOnUse" x="117" y="47" width="16" height="17">
<path d="M132.531 56.8444V54.004L130.976 53.8828C130.824 53.2768 130.587 52.713 130.278 52.1913L131.286 51.0056L129.285 48.9978L128.103 50.0096C127.583 49.6987 127.021 49.4615 126.416 49.3087L126.29 47.7542H123.464L123.343 49.3087C122.739 49.4615 122.177 49.6987 121.657 50.0096L120.475 48.9978L118.474 51.0056L119.482 52.1913C119.172 52.713 118.936 53.2768 118.784 53.8828L117.234 54.004V56.8444L118.784 56.9656C118.936 57.5664 119.172 58.1355 119.482 58.6572L118.474 59.8429L120.475 61.8507L121.657 60.8389C122.177 61.1498 122.739 61.3869 123.343 61.5398L123.464 63.0943H126.29L126.416 61.5398C127.015 61.3869 127.583 61.1498 128.103 60.8389L129.285 61.8507L131.286 59.8429L130.278 58.6572C130.587 58.1355 130.824 57.5716 130.976 56.9656L132.531 56.8444ZM124.883 58.1566C123.38 58.1566 122.161 56.934 122.161 55.4269C122.161 53.9197 123.38 52.6972 124.883 52.6972C126.385 52.6972 127.604 53.9197 127.604 55.4269C127.604 56.934 126.385 58.1566 124.883 58.1566Z" fill="white"/>
</mask>
<g mask="url(#mask0_136_2547)">
<path opacity="0.5" d="M132.531 56.8444V54.004L130.976 53.8828C130.824 53.2768 130.587 52.713 130.278 52.1913L131.286 51.0056L129.285 48.9978L128.103 50.0096C127.583 49.6987 127.021 49.4615 126.416 49.3087L126.29 47.7542H123.464L123.343 49.3087C122.739 49.4615 122.177 49.6987 121.657 50.0096L120.475 48.9978L118.474 51.0056L119.482 52.1913C119.172 52.713 118.936 53.2768 118.784 53.8828L117.234 54.004V56.8444L118.784 56.9656C118.936 57.5664 119.172 58.1355 119.482 58.6572L118.474 59.8429L120.475 61.8507L121.657 60.8389C122.177 61.1498 122.739 61.3869 123.343 61.5398L123.464 63.0943H126.29L126.416 61.5398C127.015 61.3869 127.583 61.1498 128.103 60.8389L129.285 61.8507L131.286 59.8429L130.278 58.6572C130.587 58.1355 130.824 57.5716 130.976 56.9656L132.531 56.8444ZM124.883 58.1566C123.38 58.1566 122.161 56.934 122.161 55.4269C122.161 53.9197 123.38 52.6972 124.883 52.6972C126.385 52.6972 127.604 53.9197 127.604 55.4269C127.604 56.934 126.385 58.1566 124.883 58.1566Z" fill="white"/>
</g>
<path d="M132.531 56.8444V54.004L130.976 53.8828C130.824 53.2768 130.587 52.713 130.278 52.1913L131.286 51.0056L129.285 48.9978L128.103 50.0096C127.583 49.6987 127.021 49.4615 126.416 49.3087L126.29 47.7542H123.464L123.343 49.3087C122.739 49.4615 122.177 49.6987 121.657 50.0096L120.475 48.9978L118.474 51.0056L119.482 52.1913C119.172 52.713 118.936 53.2768 118.784 53.8828L117.234 54.004V56.8444L118.784 56.9656C118.936 57.5664 119.172 58.1355 119.482 58.6572L118.474 59.8429L120.475 61.8507L121.657 60.8389C122.177 61.1498 122.739 61.3869 123.343 61.5398L123.464 63.0943H126.29L126.416 61.5398C127.015 61.3869 127.583 61.1498 128.103 60.8389L129.285 61.8507L131.286 59.8429L130.278 58.6572C130.587 58.1355 130.824 57.5716 130.976 56.9656L132.531 56.8444ZM124.883 58.1566C123.38 58.1566 122.161 56.934 122.161 55.4269C122.161 53.9197 123.38 52.6972 124.883 52.6972C126.385 52.6972 127.604 53.9197 127.604 55.4269C127.604 56.934 126.385 58.1566 124.883 58.1566Z" stroke="#263238" stroke-linecap="round" stroke-linejoin="round"/>
<path d="M119.199 66.7358V64.6964L118.085 64.6068C117.975 64.1747 117.807 63.7636 117.581 63.3895L118.306 62.5358L116.866 61.0919L116.015 61.8191C115.642 61.5978 115.238 61.4239 114.802 61.3132L114.712 60.196H112.68L112.59 61.3132C112.159 61.4239 111.75 61.5925 111.377 61.8191L110.526 61.0919L109.086 62.5358L109.811 63.3895C109.591 63.7636 109.417 64.1694 109.307 64.6068L108.193 64.6964V66.7358L109.307 66.8254C109.417 67.2575 109.585 67.6685 109.811 68.0427L109.086 68.8964L110.526 70.3403L111.377 69.613C111.75 69.8344 112.159 70.0083 112.59 70.1189L112.68 71.2361H114.712L114.802 70.1189C115.233 70.0083 115.642 69.8396 116.015 69.613L116.866 70.3403L118.306 68.8964L117.581 68.0427C117.807 67.6685 117.975 67.2627 118.085 66.8254L119.199 66.7358ZM113.699 67.6791C112.616 67.6791 111.739 66.799 111.739 65.7134C111.739 64.6279 112.616 63.7478 113.699 63.7478C114.781 63.7478 115.658 64.6279 115.658 65.7134C115.658 66.799 114.781 67.6791 113.699 67.6791Z" fill="#F17199"/>
<mask id="mask1_136_2547" style="mask-type:luminance" maskUnits="userSpaceOnUse" x="108" y="60" width="12" height="12">
<path d="M119.199 66.7358V64.6964L118.085 64.6068C117.975 64.1747 117.807 63.7636 117.581 63.3895L118.306 62.5358L116.866 61.0919L116.015 61.8191C115.642 61.5978 115.238 61.4239 114.802 61.3132L114.712 60.196H112.68L112.59 61.3132C112.159 61.4239 111.75 61.5925 111.377 61.8191L110.526 61.0919L109.086 62.5358L109.811 63.3895C109.591 63.7636 109.417 64.1694 109.307 64.6068L108.193 64.6964V66.7358L109.307 66.8254C109.417 67.2575 109.585 67.6685 109.811 68.0427L109.086 68.8964L110.526 70.3403L111.377 69.613C111.75 69.8344 112.159 70.0083 112.59 70.1189L112.68 71.2361H114.712L114.802 70.1189C115.233 70.0083 115.642 69.8396 116.015 69.613L116.866 70.3403L118.306 68.8964L117.581 68.0427C117.807 67.6685 117.975 67.2627 118.085 66.8254L119.199 66.7358ZM113.699 67.6791C112.616 67.6791 111.739 66.799 111.739 65.7134C111.739 64.6279 112.616 63.7478 113.699 63.7478C114.781 63.7478 115.658 64.6279 115.658 65.7134C115.658 66.799 114.781 67.6791 113.699 67.6791Z" fill="white"/>
</mask>
<g mask="url(#mask1_136_2547)">
<path opacity="0.7" d="M119.199 66.7358V64.6964L118.085 64.6068C117.975 64.1747 117.807 63.7636 117.581 63.3895L118.306 62.5358L116.866 61.0919L116.015 61.8191C115.642 61.5978 115.238 61.4239 114.802 61.3132L114.712 60.196H112.68L112.59 61.3132C112.159 61.4239 111.75 61.5925 111.377 61.8191L110.526 61.0919L109.086 62.5358L109.811 63.3895C109.591 63.7636 109.417 64.1694 109.307 64.6068L108.193 64.6964V66.7358L109.307 66.8254C109.417 67.2575 109.585 67.6685 109.811 68.0427L109.086 68.8964L110.526 70.3403L111.377 69.613C111.75 69.8344 112.159 70.0083 112.59 70.1189L112.68 71.2361H114.712L114.802 70.1189C115.233 70.0083 115.642 69.8396 116.015 69.613L116.866 70.3403L118.306 68.8964L117.581 68.0427C117.807 67.6685 117.975 67.2627 118.085 66.8254L119.199 66.7358ZM113.699 67.6791C112.616 67.6791 111.739 66.799 111.739 65.7134C111.739 64.6279 112.616 63.7478 113.699 63.7478C114.781 63.7478 115.658 64.6279 115.658 65.7134C115.658 66.799 114.781 67.6791 113.699 67.6791Z" fill="white"/>
</g>
<path d="M119.199 66.7358V64.6964L118.085 64.6068C117.975 64.1747 117.807 63.7636 117.581 63.3895L118.306 62.5358L116.866 61.0919L116.015 61.8191C115.642 61.5978 115.238 61.4239 114.802 61.3132L114.712 60.196H112.68L112.59 61.3132C112.159 61.4239 111.75 61.5925 111.377 61.8191L110.526 61.0919L109.086 62.5358L109.811 63.3895C109.591 63.7636 109.417 64.1694 109.307 64.6068L108.193 64.6964V66.7358L109.307 66.8254C109.417 67.2575 109.585 67.6685 109.811 68.0427L109.086 68.8964L110.526 70.3403L111.377 69.613C111.75 69.8344 112.159 70.0083 112.59 70.1189L112.68 71.2361H114.712L114.802 70.1189C115.233 70.0083 115.642 69.8396 116.015 69.613L116.866 70.3403L118.306 68.8964L117.581 68.0427C117.807 67.6685 117.975 67.2627 118.085 66.8254L119.199 66.7358ZM113.699 67.6791C112.616 67.6791 111.739 66.799 111.739 65.7134C111.739 64.6279 112.616 63.7478 113.699 63.7478C114.781 63.7478 115.658 64.6279 115.658 65.7134C115.658 66.799 114.781 67.6791 113.699 67.6791Z" stroke="#263238" stroke-linecap="round" stroke-linejoin="round"/>
<path d="M163.656 132.781L159.926 135.632C154.116 133.387 154.489 132.881 148.931 132.075C146.053 131.659 140.09 131.833 135.079 132.096C130.551 132.328 126.795 132.634 126.795 132.634C126.795 132.634 137.874 121.588 140.92 119.949C143.92 118.342 157.347 112.561 157.767 112.382C157.772 112.382 157.778 112.382 157.778 112.382C157.778 112.382 167.858 123.649 163.656 132.786V132.781Z" fill="#F17199"/>
<path opacity="0.2" d="M163.656 132.781L159.926 135.632C154.116 133.387 154.489 132.881 148.931 132.075C146.053 131.659 140.09 131.833 135.079 132.096C141.314 127.77 158.177 131.316 158.177 131.316C158.177 131.316 155.566 127.98 155.361 121.219C155.162 114.711 157.583 112.54 157.767 112.382C157.772 112.382 157.778 112.382 157.778 112.382C157.778 112.382 167.858 123.649 163.656 132.786V132.781Z" fill="black"/>
<path d="M126.795 132.639C126.795 132.639 137.874 121.594 140.92 119.955C143.967 118.321 157.778 112.377 157.778 112.377C157.778 112.377 167.853 123.644 163.656 132.781L159.926 135.632" stroke="#263238" stroke-linecap="round" stroke-linejoin="round"/>
<path d="M180.04 115.418L163.115 130.831C155.172 124.049 157.73 113.837 157.73 113.837L163.813 109.552L171.157 104.377C171.157 104.377 175.139 106.211 177.887 108.888C179.804 110.764 181.117 113.051 180.04 115.418Z" fill="white"/>
<mask id="mask2_136_2547" style="mask-type:luminance" maskUnits="userSpaceOnUse" x="157" y="104" width="24" height="27">
<path d="M180.04 115.418L163.115 130.831C155.172 124.049 157.73 113.837 157.73 113.837L163.813 109.552L171.157 104.377C171.157 104.377 175.139 106.211 177.887 108.888C179.804 110.764 181.117 113.051 180.04 115.418Z" fill="white"/>
</mask>
<g mask="url(#mask2_136_2547)">
<path opacity="0.2" d="M177.887 108.888C177.645 109.668 177.093 110.459 176.137 111.249C170.664 115.797 166.188 112.356 163.813 109.552L171.157 104.377C171.157 104.377 175.139 106.211 177.887 108.888Z" fill="#F17199"/>
</g>
<path d="M180.04 115.418L163.115 130.831C155.172 124.049 157.73 113.837 157.73 113.837L163.813 109.552L171.157 104.377C171.157 104.377 175.139 106.211 177.887 108.888C179.804 110.764 181.117 113.051 180.04 115.418Z" stroke="#263238" stroke-linecap="round" stroke-linejoin="round"/>
<path d="M173.211 113.699C173.211 113.699 170.427 113.067 168.389 109.115C166.351 105.157 166.587 86.5498 167.044 82.861C167.501 79.1722 174.546 77.1434 174.877 80.8533C174.929 81.4171 175.144 82.5238 175.465 84.0151C175.885 85.928 176.474 88.4733 177.104 91.2873C179.226 100.715 181.837 113.199 180.04 115.417" fill="white"/>
<mask id="mask3_136_2547" style="mask-type:luminance" maskUnits="userSpaceOnUse" x="166" y="78" width="15" height="38">
<path d="M173.211 113.699C173.211 113.699 170.427 113.067 168.389 109.115C166.351 105.157 166.587 86.5498 167.044 82.861C167.501 79.1722 174.546 77.1434 174.877 80.8533C174.929 81.4171 175.144 82.5238 175.465 84.0151C175.885 85.928 176.474 88.4733 177.104 91.2873C179.226 100.715 181.837 113.199 180.04 115.417" fill="white"/>
</mask>
<g mask="url(#mask3_136_2547)">
<path opacity="0.2" d="M177.104 91.2874C173.989 88.974 171.782 84.6212 171.782 84.6212L175.465 84.0151C175.885 85.928 176.474 88.4733 177.104 91.2874Z" fill="#F17199"/>
</g>
<path d="M173.211 113.699C173.211 113.699 170.427 113.067 168.389 109.115C166.351 105.157 166.587 86.5498 167.044 82.861C167.501 79.1722 174.546 77.1434 174.877 80.8533C174.929 81.4171 175.144 82.5238 175.465 84.0151C175.885 85.928 176.474 88.4733 177.104 91.2873C179.226 100.715 181.837 113.199 180.04 115.417" stroke="#263238" stroke-linecap="round" stroke-linejoin="round"/>
<path d="M195.091 58.1567C195.091 58.1567 195.091 58.1988 195.075 58.2568C194.802 61.2447 191.156 60.6809 186.349 61.5135C182.688 62.1458 177.902 65.118 174.388 67.6264C171.62 69.5972 169.644 71.2783 169.644 71.2783C169.644 71.2783 165.61 68.5854 161.964 61.0972C161.964 61.0972 175.16 52.7868 176.699 42.5056C177.913 34.4429 189.559 42.3422 193.94 53.3665C194.812 55.5534 195.164 57.0816 195.091 58.1567Z" fill="white"/>
<mask id="mask4_136_2547" style="mask-type:luminance" maskUnits="userSpaceOnUse" x="161" y="39" width="35" height="33">
<path d="M195.091 58.1567C195.091 58.1567 195.091 58.1988 195.075 58.2568C194.802 61.2447 191.156 60.6809 186.349 61.5135C182.688 62.1458 177.902 65.118 174.388 67.6264C171.62 69.5972 169.644 71.2783 169.644 71.2783C169.644 71.2783 165.61 68.5854 161.964 61.0972C161.964 61.0972 175.16 52.7868 176.699 42.5056C177.913 34.4429 189.559 42.3422 193.94 53.3665C194.812 55.5534 195.164 57.0816 195.091 58.1567Z" fill="white"/>
</mask>
<g mask="url(#mask4_136_2547)">
<path opacity="0.15" d="M195.075 58.2569C194.802 61.2448 191.156 60.681 186.349 61.5136C182.688 62.146 177.902 65.1181 174.388 67.6265C172.786 66.6779 171.903 65.761 172.26 64.9653C173.884 61.3555 179.988 60.1962 179.988 60.1962C179.988 60.1962 179.468 57.8301 180.419 56.6865C181.369 55.5377 184.868 57.8301 189.858 59.6112C194.339 61.2132 194.991 58.7786 195.075 58.2569Z" fill="black"/>
</g>
<path d="M195.091 58.1567C195.091 58.1567 195.091 58.1988 195.075 58.2568C194.802 61.2447 191.156 60.6809 186.349 61.5135C182.688 62.1458 177.902 65.118 174.388 67.6264C171.62 69.5972 169.644 71.2783 169.644 71.2783C169.644 71.2783 165.61 68.5854 161.964 61.0972C161.964 61.0972 175.16 52.7868 176.699 42.5056C177.913 34.4429 189.559 42.3422 193.94 53.3665C194.812 55.5534 195.164 57.0816 195.091 58.1567Z" stroke="#263238" stroke-linecap="round" stroke-linejoin="round"/>
<path d="M181.343 49.1824C184.574 47.9545 185.819 45.7571 186.439 46.2524C187.064 46.7478 189.302 48.3866 188.939 49.3405C188.577 50.2943 185.672 53.6775 185.383 54.2782" stroke="#263238" stroke-linecap="round" stroke-linejoin="round"/>
<path d="M179.835 40.5874C178.097 40.7508 178.328 45.3407 182.588 50.9846C186.848 56.6285 191.056 59.2053 192.921 58.5624C194.786 57.9143 193.494 55.4586 193.494 55.4586" stroke="#263238" stroke-linecap="round" stroke-linejoin="round"/>
<path d="M175.701 67.6632C175.701 67.6632 167.596 73.8024 165.878 73.7444C164.155 73.6917 161.801 73.6443 159.537 70.6142C157.788 68.2692 158.046 66.2456 158.55 64.8175C158.692 64.3959 158.86 64.0323 159.002 63.7214C159.354 62.952 166.057 56.1804 166.057 56.1804L167.722 56.6231C167.722 56.6231 168.804 62.6991 175.402 66.9149L175.701 67.6632Z" fill="#F17199"/>
<mask id="mask5_136_2547" style="mask-type:luminance" maskUnits="userSpaceOnUse" x="158" y="56" width="18" height="18">
<path d="M175.701 67.6632C175.701 67.6632 167.596 73.8024 165.878 73.7444C164.155 73.6917 161.801 73.6443 159.537 70.6142C157.788 68.2692 158.046 66.2456 158.55 64.8175C158.692 64.3959 158.86 64.0323 159.002 63.7214C159.354 62.952 166.057 56.1804 166.057 56.1804L167.722 56.6231C167.722 56.6231 168.804 62.6991 175.402 66.9149L175.701 67.6632Z" fill="white"/>
</mask>
<g mask="url(#mask5_136_2547)">
<path opacity="0.2" d="M175.701 67.6631C175.701 67.6631 167.596 73.8024 165.878 73.7444C164.155 73.6917 161.801 73.6443 159.537 70.6142C157.788 68.2691 158.046 66.2456 158.55 64.8175C158.97 66.4669 159.779 68.833 161.077 69.771C163.152 71.2782 171.782 66.4353 171.782 66.4353C171.782 66.4353 166.992 60.5174 167.722 56.623C167.722 56.623 168.804 62.699 175.402 66.9148L175.701 67.6631Z" fill="black"/>
</g>
<path d="M175.701 67.6632C175.701 67.6632 167.596 73.8024 165.878 73.7444C164.155 73.6917 161.801 73.6443 159.537 70.6142C157.788 68.2692 158.046 66.2456 158.55 64.8175C158.692 64.3959 158.86 64.0323 159.002 63.7214C159.354 62.952 166.057 56.1804 166.057 56.1804L167.722 56.6231C167.722 56.6231 168.804 62.6991 175.402 66.9149L175.701 67.6632Z" stroke="#263238" stroke-linecap="round" stroke-linejoin="round"/>
<path opacity="0.15" d="M179.835 40.5874C178.097 40.7508 178.328 45.3407 182.588 50.9846C186.848 56.6285 191.056 59.2053 192.921 58.5624C194.786 57.9143 193.494 55.4586 193.494 55.4586C193.494 55.4586 192.343 50.621 188.193 46.1786C183.334 40.9721 179.835 40.5874 179.835 40.5874Z" fill="black"/>
<path d="M182.215 77.1699C182.026 79.5097 175.801 88.0308 171.782 86.1864L182.215 77.1699Z" fill="white"/>
<path d="M182.215 77.1699C182.026 79.5097 175.801 88.0308 171.782 86.1864" stroke="#263238" stroke-linecap="round" stroke-linejoin="round"/>
<path d="M167.118 73.0542C167.118 73.0542 170.317 81.9969 172.633 83.6358C174.945 85.2799 180.923 80.2895 180.382 79.4411C179.846 78.5979 174.068 73.2123 173.154 68.8384C173.154 68.8384 170.432 69.2178 167.118 73.0542Z" fill="#F17199"/>
<mask id="mask6_136_2547" style="mask-type:luminance" maskUnits="userSpaceOnUse" x="167" y="68" width="14" height="16">
<path d="M167.118 73.0542C167.118 73.0542 170.317 81.9969 172.633 83.6358C174.945 85.2799 180.923 80.2895 180.382 79.4411C179.846 78.5979 174.068 73.2123 173.154 68.8384C173.154 68.8384 170.432 69.2178 167.118 73.0542Z" fill="white"/>
</mask>
<g mask="url(#mask6_136_2547)">
<path opacity="0.2" d="M167.118 73.0542C167.118 73.0542 170.317 81.9969 172.633 83.6358C174.945 85.2799 180.923 80.2895 180.382 79.4411C179.846 78.5979 174.068 73.2123 173.154 68.8384C173.154 68.8384 170.432 69.2178 167.118 73.0542Z" fill="black"/>
</g>
<path d="M167.118 73.0542C167.118 73.0542 170.317 81.9969 172.633 83.6358C174.945 85.2799 180.923 80.2895 180.382 79.4411C179.846 78.5979 174.068 73.2123 173.154 68.8384C173.154 68.8384 170.432 69.2178 167.118 73.0542Z" stroke="#263238" stroke-linecap="round" stroke-linejoin="round"/>
<path d="M182.084 77.9183C182.63 76.0738 181.296 76.5745 181.511 74.8407C181.727 73.107 180.613 73.1123 180.266 71.3258C179.914 69.5394 178.816 69.7133 178.175 68.2378C177.535 66.7622 175.927 67.3524 174.372 68.0744C172.817 68.7911 170.732 72.2217 170.732 72.2217C170.422 74.4244 172.26 73.966 172.26 73.966C171.042 76.2319 173.075 76.7273 173.075 76.7273C172.964 79.1619 174.435 78.8615 174.435 78.8615C174.435 78.8615 174.362 79.9945 175.46 80.1842C176.164 80.3054 181.543 79.7732 182.084 77.9288V77.9183Z" fill="white" stroke="#263238" stroke-linecap="round" stroke-linejoin="round"/>
<path d="M172.255 73.9607C172.255 73.9607 175.223 70.8146 176.132 70.4563" stroke="#263238" stroke-linecap="round" stroke-linejoin="round"/>
<path d="M173.069 76.7221C173.069 76.7221 174.861 74.7091 177.839 73.6973" stroke="#263238" stroke-linecap="round" stroke-linejoin="round"/>
<path d="M174.43 78.8563C174.43 78.8563 178.37 76.9065 178.948 76.7273" stroke="#263238" stroke-linecap="round" stroke-linejoin="round"/>
<path d="M169.219 85.77C169.219 85.77 166.33 83.0877 165.804 81.9495C165.279 80.8112 164.265 75.9104 164.99 74.5929C165.715 73.2755 167.837 71.0833 168.168 70.0293C168.499 68.9754 170.333 71.2835 168.237 75.4993C168.237 75.4993 170.748 78.5505 170.338 81.8862" fill="white"/>
<path d="M169.219 85.77C169.219 85.77 166.33 83.0877 165.804 81.9495C165.279 80.8112 164.265 75.9104 164.99 74.5929C165.715 73.2755 167.837 71.0833 168.168 70.0293C168.499 68.9754 170.333 71.2835 168.237 75.4993C168.237 75.4993 170.748 78.5505 170.338 81.8862" stroke="#263238" stroke-linecap="round" stroke-linejoin="round"/>
<path opacity="0.15" d="M195.091 58.1567C195.091 58.1567 195.091 58.1989 195.075 58.2569C195.075 58.22 195.085 58.1936 195.091 58.1567Z" fill="black"/>
<path d="M167.501 163.773C167.501 163.773 166.346 164.242 164.68 162.155C161.513 158.182 156.774 148.638 153.659 144.064C152.325 142.104 148.637 140.175 144.65 138.557C138.483 136.059 131.601 134.294 131.601 134.294C131.601 134.294 148.38 133.256 152.64 134.542C156.328 135.648 169.387 143.142 173.112 145.297C173.747 145.666 174.11 145.877 174.11 145.877C174.11 145.877 174.672 153.813 167.501 163.773Z" fill="#F17199"/>
<path opacity="0.2" d="M167.501 163.773C167.501 163.773 166.346 164.242 164.68 162.155C161.513 158.182 156.774 148.638 153.659 144.064C152.325 142.104 148.637 140.175 144.65 138.557C159.868 142.046 165.263 157.37 165.263 157.37C165.263 157.37 166.072 148.67 173.112 145.297C173.747 145.666 174.11 145.877 174.11 145.877C174.11 145.877 174.672 153.813 167.501 163.773Z" fill="black"/>
<path d="M131.596 134.294C131.596 134.294 148.375 133.256 152.635 134.542C156.948 135.843 174.11 145.877 174.11 145.877C174.11 145.877 174.666 153.813 167.501 163.773" stroke="#263238" stroke-linecap="round" stroke-linejoin="round"/>
<path d="M195.485 170.613C194.618 171.203 192.958 171.198 190.851 170.808C188.918 170.449 186.612 169.77 184.206 168.932C176.143 166.128 166.965 161.575 166.965 161.575C166.965 161.575 166.992 150.762 173.327 146.572C173.327 146.572 181.543 152.216 186.833 153.613C191.266 154.788 195.485 170.613 195.485 170.613Z" fill="white"/>
<mask id="mask7_136_2547" style="mask-type:luminance" maskUnits="userSpaceOnUse" x="166" y="146" width="30" height="26">
<path d="M195.485 170.613C194.618 171.203 192.958 171.198 190.851 170.808C188.918 170.449 186.612 169.77 184.206 168.932C176.143 166.128 166.965 161.575 166.965 161.575C166.965 161.575 166.992 150.762 173.327 146.572C173.327 146.572 181.543 152.216 186.833 153.613C191.266 154.788 195.485 170.613 195.485 170.613Z" fill="white"/>
</mask>
<g mask="url(#mask7_136_2547)">
<path opacity="0.2" d="M190.851 170.808C188.918 170.449 186.612 169.77 184.206 168.932C183.024 163.456 186.46 157.37 186.46 157.37C186.591 163.203 188.845 167.825 190.851 170.808Z" fill="#F17199"/>
</g>
<path d="M195.485 170.613C194.618 171.203 192.958 171.198 190.851 170.808C188.918 170.449 186.612 169.77 184.206 168.932C176.143 166.128 166.965 161.575 166.965 161.575C166.965 161.575 166.992 150.762 173.327 146.572C173.327 146.572 181.543 152.216 186.833 153.613C191.266 154.788 195.485 170.613 195.485 170.613Z" stroke="#263238" stroke-linecap="round" stroke-linejoin="round"/>
<path d="M187.92 167.493C187.442 166.365 187.085 164.958 186.827 163.23L187.92 167.493Z" fill="white"/>
<path d="M187.92 167.493C187.442 166.365 187.085 164.958 186.827 163.23" stroke="#263238" stroke-linecap="round" stroke-linejoin="round"/>
<path d="M187.925 149.228C190.258 149.597 192.401 154.635 193.846 156.427C193.846 156.427 197.959 158.35 198.663 160.163C199.361 161.976 202.172 169.243 196.604 170.739C193.404 171.598 191.014 171.445 189.354 169.749" fill="white"/>
<path d="M187.925 149.228C190.258 149.597 192.401 154.635 193.846 156.427C193.846 156.427 197.959 158.35 198.663 160.163C199.361 161.976 202.172 169.243 196.604 170.739C193.404 171.598 191.014 171.445 189.354 169.749" stroke="#263238" stroke-linecap="round" stroke-linejoin="round"/>
<path d="M188.451 142.067V142.235C188.424 143.785 187.988 146.857 187.006 152.301C186.087 157.391 185.913 157.786 185.299 158.045C184.548 158.356 179.163 159.557 176.867 160.052C176.678 160.089 176.51 160.126 176.368 160.158C176.037 160.232 175.165 159.773 175.223 159.441C175.496 157.76 177.367 142.562 178.118 142.067C179.258 141.318 186.628 140.612 187.447 140.839C187.831 140.944 188.451 141.672 188.451 142.067Z" fill="#999999"/>
<mask id="mask8_136_2547" style="mask-type:luminance" maskUnits="userSpaceOnUse" x="175" y="140" width="14" height="21">
<path d="M188.451 142.067V142.235C188.424 143.785 187.988 146.857 187.006 152.301C186.087 157.391 185.913 157.786 185.299 158.045C184.548 158.356 179.163 159.557 176.867 160.052C176.678 160.089 176.51 160.126 176.368 160.158C176.037 160.232 175.165 159.773 175.223 159.441C175.496 157.76 177.367 142.562 178.118 142.067C179.258 141.318 186.628 140.612 187.447 140.839C187.831 140.944 188.451 141.672 188.451 142.067Z" fill="white"/>
</mask>
<g mask="url(#mask8_136_2547)">
<path opacity="0.2" d="M188.451 142.235C188.424 143.785 187.988 146.857 187.006 152.301C186.087 157.391 185.913 157.786 185.299 158.045C184.548 158.355 179.163 159.557 176.867 160.052C177.146 157.855 177.986 151.716 179.72 143.305L188.451 142.235Z" fill="black"/>
</g>
<path d="M188.451 142.067V142.235C188.424 143.785 187.988 146.857 187.006 152.301C186.087 157.391 185.913 157.786 185.299 158.045C184.548 158.356 179.163 159.557 176.867 160.052C176.678 160.089 176.51 160.126 176.368 160.158C176.037 160.232 175.165 159.773 175.223 159.441C175.496 157.76 177.367 142.562 178.118 142.067C179.258 141.318 186.628 140.612 187.447 140.839C187.831 140.944 188.451 141.672 188.451 142.067Z" stroke="#263238" stroke-linecap="round" stroke-linejoin="round"/>
<path d="M176.757 158.977C176.757 158.977 179.21 144.66 179.426 143.785C179.641 142.91 179.862 143.258 187.216 142.293" stroke="#263238" stroke-linecap="round" stroke-linejoin="round"/>
<path d="M186.827 163.23C186.827 163.23 183.019 164.595 183.282 162.266C183.282 162.266 182.404 161.649 182.404 160.685C182.404 159.72 183.019 158.666 183.019 158.666C183.019 158.666 181.574 161.169 180.35 159.72C180.03 159.341 181.333 156.622 181.333 156.622C181.333 156.622 180.13 157.349 179.562 155.989C179.389 155.573 181.396 151.832 181.832 151.552C183.303 150.625 187.132 148.643 188.445 149.397C189.759 150.15 190.195 152.522 190.983 153.397C191.771 154.271 191.335 157.259 190.983 159.367" fill="white"/>
<path d="M186.827 163.23C186.827 163.23 183.019 164.595 183.282 162.266C183.282 162.266 182.404 161.649 182.404 160.685C182.404 159.72 183.019 158.666 183.019 158.666C183.019 158.666 181.574 161.169 180.35 159.72C180.03 159.341 181.333 156.622 181.333 156.622C181.333 156.622 180.13 157.349 179.562 155.989C179.389 155.573 181.396 151.832 181.832 151.552C183.303 150.625 187.132 148.643 188.445 149.397C189.759 150.15 190.195 152.522 190.983 153.397C191.771 154.271 191.335 157.259 190.983 159.367" stroke="#263238" stroke-linecap="round" stroke-linejoin="round"/>
<path d="M181.333 156.622C181.333 156.622 182.714 154.235 183.108 153.924C183.502 153.613 186.827 152.648 186.827 152.648" fill="white"/>
<path d="M181.333 156.622C181.333 156.622 182.714 154.235 183.108 153.924C183.502 153.613 186.827 152.648 186.827 152.648" stroke="#263238" stroke-linecap="round" stroke-linejoin="round"/>
<path d="M183.019 158.666C183.849 157.744 184.332 156.68 184.684 156.617C185.036 156.553 187.705 156.158 187.925 156.074" fill="white"/>
<path d="M183.019 158.666C183.849 157.744 184.332 156.68 184.684 156.617C185.036 156.553 187.705 156.158 187.925 156.074" stroke="#263238" stroke-linecap="round" stroke-linejoin="round"/>
<path d="M183.14 162.155C184.07 161.085 185.514 159.984 185.819 159.984C186.123 159.984 187.831 159.762 187.92 159.72" fill="white"/>
<path d="M183.14 162.155C184.07 161.085 185.514 159.984 185.819 159.984C186.123 159.984 187.831 159.762 187.92 159.72" stroke="#263238" stroke-linecap="round" stroke-linejoin="round"/>
<path d="M187.447 162.708C187.447 162.708 186.654 163.409 185.472 163.193L187.447 162.708Z" fill="white"/>
<path d="M187.447 162.708C187.447 162.708 186.654 163.409 185.472 163.193" stroke="#263238" stroke-linecap="round" stroke-linejoin="round"/>
<path d="M186.827 163.23C186.827 163.23 190.295 166.133 191.87 162.703L186.827 163.23Z" fill="white"/>
<path d="M186.827 163.23C186.827 163.23 190.295 166.133 191.87 162.703" stroke="#263238" stroke-linecap="round" stroke-linejoin="round"/>
<path d="M101.916 132.391C101.916 132.391 100.382 132.349 98.1599 132.291C93.0434 132.165 84.2654 131.975 82.1851 132.107C78.3399 132.355 74.5996 134.136 74.5996 134.136L66.1263 122.542C67.4186 106.475 77.6307 104.715 77.6307 104.715C77.6307 104.715 84.8432 112.972 87.4698 115.223C90.0964 117.473 101.916 132.391 101.916 132.391Z" fill="#F17199"/>
<path opacity="0.2" d="M98.1599 132.291C93.0434 132.165 84.2654 131.975 82.1851 132.107C78.3399 132.355 74.5996 134.136 74.5996 134.136L66.1263 122.542C67.4186 106.475 77.6307 104.715 77.6307 104.715C77.6307 104.715 78.2295 114.527 70.4181 121.257C70.4181 121.257 72.8346 128.065 78.1087 129.414C83.3881 130.763 93.679 129.656 98.1599 132.291Z" fill="black"/>
<path d="M101.916 132.391C101.916 132.391 90.0964 117.473 87.4698 115.223C84.8432 112.972 77.6307 104.715 77.6307 104.715C77.6307 104.715 67.4186 106.475 66.1211 122.542L74.5944 134.136" stroke="#263238" stroke-linecap="round" stroke-linejoin="round"/>
<path d="M76.9583 106.649C76.9583 106.649 76.7744 115.27 67.4186 119.907L51.2232 96.9156C50.0833 90.6973 62.5174 88.3787 62.5174 88.3787V88.3892L68.3852 95.8037L76.9583 106.649Z" fill="white"/>
<mask id="mask9_136_2547" style="mask-type:luminance" maskUnits="userSpaceOnUse" x="51" y="88" width="26" height="32">
<path d="M76.9583 106.649C76.9583 106.649 76.7744 115.27 67.4186 119.907L51.2232 96.9156C50.0833 90.6973 62.5174 88.3787 62.5174 88.3787V88.3892L68.3852 95.8037L76.9583 106.649Z" fill="white"/>
</mask>
<g mask="url(#mask9_136_2547)">
<path opacity="0.2" d="M68.3852 95.8037C62.9167 100.141 56.8493 95.4611 56.8493 95.4611L62.5227 88.3892L68.3852 95.8037Z" fill="#F17199"/>
</g>
<path d="M76.9583 106.649C76.9583 106.649 76.7744 115.27 67.4186 119.907L51.2232 96.9156C50.0833 90.6973 62.5174 88.3787 62.5174 88.3787V88.3892L68.3852 95.8037L76.9583 106.649Z" stroke="#263238" stroke-linecap="round" stroke-linejoin="round"/>
<path d="M51.2232 96.9155C50.5613 95.4927 51.2232 92.041 52.3999 88.0413C53.75 83.4514 55.7724 78.129 57.259 74.3242C58.0785 72.2111 58.7352 70.5669 59.0136 69.7606C60.2428 66.2457 66.5781 69.9345 66.1263 73.6234C65.6693 77.3122 66.9931 90.3126 64.0566 93.6483C61.1148 96.9893 58.2624 96.9155 58.2624 96.9155" fill="white"/>
<mask id="mask10_136_2547" style="mask-type:luminance" maskUnits="userSpaceOnUse" x="50" y="68" width="17" height="29">
<path d="M51.2232 96.9155C50.5613 95.4927 51.2232 92.041 52.3999 88.0413C53.75 83.4514 55.7724 78.129 57.259 74.3242C58.0785 72.2111 58.7352 70.5669 59.0136 69.7606C60.2428 66.2457 66.5781 69.9345 66.1263 73.6234C65.6693 77.3122 66.9931 90.3126 64.0566 93.6483C61.1148 96.9893 58.2624 96.9155 58.2624 96.9155" fill="white"/>
</mask>
<g mask="url(#mask10_136_2547)">
<path opacity="0.2" d="M61.5036 72.2058C61.5036 72.2058 59.1292 86.4288 56.8493 87.2614C55.8932 87.6092 54.1282 87.8622 52.3999 88.0413C53.75 83.4514 55.7724 78.129 57.259 74.3242L61.5036 72.2058Z" fill="#F17199"/>
</g>
<path d="M51.2232 96.9155C50.5613 95.4927 51.2232 92.041 52.3999 88.0413C53.75 83.4514 55.7724 78.129 57.259 74.3242C58.0785 72.2111 58.7352 70.5669 59.0136 69.7606C60.2428 66.2457 66.5781 69.9345 66.1263 73.6234C65.6693 77.3122 66.9931 90.3126 64.0566 93.6483C61.1148 96.9893 58.2624 96.9155 58.2624 96.9155" stroke="#263238" stroke-linecap="round" stroke-linejoin="round"/>
<path d="M56.324 80.3897C55.846 81.0484 54.9267 81.2013 54.2648 80.7217L32.1333 64.6807C31.4714 64.2011 31.3244 63.2789 31.8024 62.6149L53.4558 32.5564C53.9338 31.8924 54.8531 31.7449 55.515 32.2244L77.6464 48.2655C78.3031 48.745 78.4554 49.6672 77.9774 50.3312L56.324 80.3897Z" fill="#BFBFBF" stroke="#263238" stroke-miterlimit="10"/>
<path d="M61.1295 35.6483L59.2067 38.3179L70.7116 46.657L72.6345 43.9874L61.1295 35.6483Z" fill="#F17199" stroke="#263238" stroke-linecap="round" stroke-linejoin="round"/>
<path d="M54.7213 34.0869L33.6467 63.3459L55.0429 78.8546L76.1174 49.5955L54.7213 34.0869Z" fill="#F17199"/>
<mask id="mask11_136_2547" style="mask-type:luminance" maskUnits="userSpaceOnUse" x="33" y="34" width="44" height="45">
<path d="M54.7213 34.0869L33.6467 63.3459L55.0429 78.8546L76.1174 49.5955L54.7213 34.0869Z" fill="white"/>
</mask>
<g mask="url(#mask11_136_2547)">
<path opacity="0.7" d="M54.7213 34.0869L33.6467 63.3459L55.0429 78.8546L76.1174 49.5955L54.7213 34.0869Z" fill="white"/>
</g>
<path d="M54.7213 34.0869L33.6467 63.3459L55.0429 78.8546L76.1174 49.5955L54.7213 34.0869Z" stroke="#263238" stroke-linecap="round" stroke-linejoin="round"/>
<path d="M70.271 44.1288L69.1048 45.7466C68.921 45.9996 68.5795 46.0523 68.3274 45.8731L65.4171 43.7599C65.5852 43.2856 65.4329 42.7376 65.0022 42.4267C64.5714 42.1158 64.0093 42.1421 63.6101 42.453L60.6946 40.3399C60.4477 40.1607 60.3899 39.8129 60.5685 39.5599L61.7347 37.9421C61.9133 37.6945 62.2653 37.6365 62.5122 37.8157L70.145 43.3489C70.3971 43.5333 70.4496 43.8811 70.271 44.1288Z" stroke="#263238" stroke-linecap="round" stroke-linejoin="round"/>
<path d="M64.0881 75.6154C64.0881 75.6154 67.4291 73.5286 68.1593 72.5062C68.8895 71.4839 70.8069 66.8624 70.3446 65.4343C69.8823 64.0062 68.2066 61.4504 68.0805 60.349C67.9544 59.2476 65.7166 61.1711 66.9878 65.703C66.9878 65.703 63.9515 68.222 63.7256 71.5788" fill="white"/>
<path d="M64.0881 75.6154C64.0881 75.6154 67.4291 73.5286 68.1593 72.5062C68.8895 71.4839 70.8069 66.8624 70.3446 65.4343C69.8823 64.0062 68.2066 61.4504 68.0805 60.349C67.9544 59.2476 65.7166 61.1711 66.9878 65.703C66.9878 65.703 63.9515 68.222 63.7256 71.5788" stroke="#263238" stroke-linecap="round" stroke-linejoin="round"/>
<path d="M62.3126 56.1858C62.3126 60.1644 59.0976 63.3948 55.1263 63.3948C51.1549 63.3948 47.94 60.1697 47.94 56.1858C47.94 52.2019 51.1549 48.9768 55.1263 48.9768C59.0976 48.9768 62.3126 52.2019 62.3126 56.1858Z" fill="white" stroke="#263238" stroke-linecap="round" stroke-linejoin="round"/>
<path d="M51.5489 53.6038L52.4314 58.6574L60.4634 56.4705" fill="white"/>
<path d="M51.5489 53.6038L52.4314 58.6574L60.4634 56.4705" stroke="#263238" stroke-linecap="round" stroke-linejoin="round"/>
<path d="M99.3681 134.821C99.3681 134.821 89.0562 136.47 81.2973 140.681C79.7057 141.54 78.2243 142.515 76.9583 143.6C73.3494 146.704 70.1975 153.133 67.5079 158.229C65.207 162.571 63.4682 164.3 63.4682 164.3C56.303 154.34 56.8598 146.404 56.8598 146.404C56.8598 146.404 56.8861 146.388 56.9281 146.367C58.0943 145.682 74.1794 136.317 78.3293 135.068C82.5896 133.783 99.3681 134.821 99.3681 134.821Z" fill="#F17199"/>
<path opacity="0.2" d="M81.2973 140.681C79.7057 141.54 78.2243 142.515 76.9583 143.6C73.3494 146.704 70.1975 153.133 67.5079 158.229C65.207 162.571 63.4682 164.3 63.4682 164.3C56.303 154.34 56.8598 146.404 56.8598 146.404C56.8598 146.404 56.8861 146.388 56.9281 146.367C57.4797 146.119 61.1936 144.881 66.1263 154.377C66.1263 154.377 69.5356 143.21 81.2973 140.681Z" fill="black"/>
<path d="M46.6583 123.433C46.6583 123.433 42.1511 122.258 43.4959 126.495C44.846 130.731 49.6736 130.594 49.6736 130.594" fill="white"/>
<path d="M46.6583 123.433C46.6583 123.433 42.1511 122.258 43.4959 126.495C44.846 130.731 49.6736 130.594 49.6736 130.594" stroke="#263238" stroke-linecap="round" stroke-linejoin="round"/>
<path d="M99.3681 134.821C99.3681 134.821 82.5896 133.783 78.3293 135.068C74.0165 136.37 56.8546 146.404 56.8546 146.404C56.8546 146.404 56.2977 154.34 63.463 164.3" stroke="#263238" stroke-linecap="round" stroke-linejoin="round"/>
<path d="M64.0093 162.102C64.0093 162.102 39.0517 171.171 34.9753 166.244C34.9753 166.244 36.8244 161.032 39.3354 157.054C40.6854 154.914 42.2351 153.128 43.79 152.717C45.7862 152.184 48.2552 151.252 50.5508 150.303C54.3331 148.733 57.6478 147.099 57.6478 147.099C63.9778 151.289 64.0093 162.102 64.0093 162.102Z" fill="white"/>
<mask id="mask12_136_2547" style="mask-type:luminance" maskUnits="userSpaceOnUse" x="34" y="147" width="31" height="21">
<path d="M64.0093 162.102C64.0093 162.102 39.0517 171.171 34.9753 166.244C34.9753 166.244 36.8244 161.032 39.3354 157.054C40.6854 154.914 42.2351 153.128 43.79 152.717C45.7862 152.184 48.2552 151.252 50.5508 150.303C54.3331 148.733 57.6478 147.099 57.6478 147.099C63.9778 151.289 64.0093 162.102 64.0093 162.102Z" fill="white"/>
</mask>
<g mask="url(#mask12_136_2547)">
<path opacity="0.2" d="M50.5508 150.303C49.8364 153.692 47.8297 160.01 42.7919 159.599C40.8378 159.441 39.8082 158.429 39.3354 157.054C40.6854 154.914 42.2351 153.128 43.79 152.717C45.7862 152.185 48.2552 151.252 50.5508 150.303Z" fill="#F17199"/>
</g>
<path d="M64.0093 162.102C64.0093 162.102 39.0517 171.171 34.9753 166.244C34.9753 166.244 36.8244 161.032 39.3354 157.054C40.6854 154.914 42.2351 153.128 43.79 152.717C45.7862 152.184 48.2552 151.252 50.5508 150.303C54.3331 148.733 57.6478 147.099 57.6478 147.099C63.9778 151.289 64.0093 162.102 64.0093 162.102Z" stroke="#263238" stroke-linecap="round" stroke-linejoin="round"/>
<path d="M36.8927 167.33C31.0197 167.593 30.6467 153.723 33.599 133.124C33.599 133.124 38.1272 124.107 40.2179 123.986C40.78 123.954 41.5575 123.939 42.3875 123.939C44.6411 123.923 47.3096 123.986 47.3096 123.986C47.3096 123.986 48.5179 129.208 48.5284 130.984C48.5441 133.645 47.3779 133.946 47.3779 133.946C47.441 136.454 45.4185 136.707 43.249 136.365C43.249 136.365 43.2122 136.491 43.0966 136.681C42.8077 137.166 42.025 138.067 40.1339 138.309C40.1024 146.345 47.8822 158.513 43.7638 161.169" fill="white"/>
<mask id="mask13_136_2547" style="mask-type:luminance" maskUnits="userSpaceOnUse" x="31" y="123" width="18" height="45">
<path d="M36.8927 167.33C31.0197 167.593 30.6467 153.723 33.599 133.124C33.599 133.124 38.1272 124.107 40.2179 123.986C40.78 123.954 41.5575 123.939 42.3875 123.939C44.6411 123.923 47.3096 123.986 47.3096 123.986C47.3096 123.986 48.5179 129.208 48.5284 130.984C48.5441 133.645 47.3779 133.946 47.3779 133.946C47.441 136.454 45.4185 136.707 43.249 136.365C43.249 136.365 43.2122 136.491 43.0966 136.681C42.8077 137.166 42.025 138.067 40.1339 138.309C40.1024 146.345 47.8822 158.513 43.7638 161.169" fill="white"/>
</mask>
<g mask="url(#mask13_136_2547)">
<path opacity="0.2" d="M48.5284 130.984C48.5441 133.645 47.3779 133.946 47.3779 133.946C47.441 136.454 45.4185 136.707 43.249 136.365C43.249 136.365 43.2122 136.491 43.0966 136.681L43.7638 134.662C43.7638 134.662 44.4624 134.958 44.8827 134.752C46.196 134.104 45.5078 131.833 45.5078 131.833C45.5078 131.833 46.2537 131.632 46.4639 130.594C46.6687 129.556 44.3784 128.855 44.3784 128.855C45.0981 127.648 43.4959 126.494 43.4959 126.494C44.0685 125.63 43.3225 124.682 42.3875 123.939C44.641 123.923 47.3096 123.986 47.3096 123.986C47.3096 123.986 48.5178 129.208 48.5284 130.984Z" fill="#F17199"/>
</g>
<path d="M36.8927 167.33C31.0197 167.593 30.6467 153.723 33.599 133.124C33.599 133.124 38.1272 124.107 40.2179 123.986C40.78 123.954 41.5575 123.939 42.3875 123.939C44.6411 123.923 47.3096 123.986 47.3096 123.986C47.3096 123.986 48.5179 129.208 48.5284 130.984C48.5441 133.645 47.3779 133.946 47.3779 133.946C47.441 136.454 45.4185 136.707 43.249 136.365C43.249 136.365 43.2122 136.491 43.0966 136.681C42.8077 137.166 42.025 138.067 40.1339 138.309C40.1024 146.345 47.8822 158.513 43.7638 161.169" stroke="#263238" stroke-linecap="round" stroke-linejoin="round"/>
<path d="M47.3359 130.215C46.611 128.876 45.9123 129.651 42.4243 128.808C42.4243 128.808 44.6778 129.034 46.3956 128.618" stroke="#263238" stroke-linecap="round" stroke-linejoin="round"/>
<path d="M42.0198 126.205C42.4926 126.415 44.5413 126.263 45.5079 126.205" stroke="#263238" stroke-linecap="round" stroke-linejoin="round"/>
<path d="M43.2437 131.859C43.2332 131.759 46.1802 132.007 46.6583 132.354C47.1363 132.702 47.4357 134.009 47.4357 134.009" stroke="#263238" stroke-linecap="round" stroke-linejoin="round"/>
<path d="M45.5026 134.663C45.2819 134.863 43.7585 134.663 43.7585 134.663C43.7585 134.663 43.6587 135.685 43.2385 136.37" stroke="#263238" stroke-linecap="round" stroke-linejoin="round"/>
<path d="M61.5036 121.752C61.5036 126.073 59.7438 129.835 57.1488 131.812H48.8226C46.2223 129.835 44.4625 126.073 44.4625 121.752C44.4625 121.573 44.4782 121.399 44.4835 121.219H61.4826C61.4931 121.399 61.5036 121.573 61.5036 121.752Z" fill="#757575"/>
<mask id="mask14_136_2547" style="mask-type:luminance" maskUnits="userSpaceOnUse" x="44" y="121" width="18" height="11">
<path d="M61.5036 121.752C61.5036 126.073 59.7438 129.835 57.1488 131.812H48.8226C46.2223 129.835 44.4625 126.073 44.4625 121.752C44.4625 121.573 44.4782 121.399 44.4835 121.219H61.4826C61.4931 121.399 61.5036 121.573 61.5036 121.752Z" fill="white"/>
</mask>
<g mask="url(#mask14_136_2547)">
<path opacity="0.2" d="M55.1263 131.316L55.0895 131.812H48.8226C46.2223 129.835 44.4625 126.073 44.4625 121.752C44.4625 121.573 44.4782 121.399 44.4835 121.219H46.3326C47.6091 124.371 50.4143 129.767 55.1263 131.316Z" fill="black"/>
</g>
<path d="M61.5036 121.752C61.5036 126.073 59.7438 129.835 57.1488 131.812H48.8226C46.2223 129.835 44.4625 126.073 44.4625 121.752C44.4625 121.573 44.4782 121.399 44.4835 121.219H61.4826C61.4931 121.399 61.5036 121.573 61.5036 121.752Z" stroke="#263238" stroke-linecap="round" stroke-linejoin="round"/>
<path d="M57.8107 131.316H48.1554L47.7089 132.613H58.2572L57.8107 131.316Z" fill="#757575" stroke="#263238" stroke-linecap="round" stroke-linejoin="round"/>
<path opacity="0.2" d="M58.2572 132.613L57.8107 131.316H48.1554L47.7089 132.613" fill="black"/>
<path d="M50.2461 110.712C48.7805 113.241 52.7099 115.618 50.761 119.075" stroke="#263238" stroke-linecap="round" stroke-linejoin="round"/>
<path d="M52.7676 110.712C51.302 113.241 55.2313 115.618 53.2824 119.075" stroke="#263238" stroke-linecap="round" stroke-linejoin="round"/>
<path d="M55.4625 110.712C53.9969 113.241 57.9262 115.618 55.9773 119.075" stroke="#263238" stroke-linecap="round" stroke-linejoin="round"/>
<path d="M154.074 147.816C150.339 141.429 134.89 135.864 117.733 135.179C117.686 135.179 117.644 135.179 117.596 135.174C117.034 135.153 116.472 135.137 115.905 135.126V135.111C115.616 135.111 115.332 135.111 115.043 135.121C114.76 135.121 114.471 135.111 114.187 135.111V135.126C113.62 135.137 113.058 135.153 112.496 135.174C112.448 135.174 112.401 135.174 112.349 135.179C95.1919 135.869 79.7477 141.429 76.0127 147.816C72.0256 154.64 66.1158 165.622 66.1158 165.622C69.4253 170.997 82.1379 171.719 82.1379 171.719L82.8155 186.185H147.266L147.944 171.719C147.944 171.719 160.656 171.003 163.966 165.622C163.966 165.622 158.061 154.64 154.069 147.816H154.074Z" fill="#F17199" stroke="#263238" stroke-linecap="round" stroke-linejoin="round"/>
<path d="M96.1059 180.968C96.1059 180.968 66.3995 185.969 64.2615 181.885C64.0461 181.474 63.9043 180.984 63.8307 180.43C63.132 175.503 67.3923 165.786 67.3923 165.786C70.6965 165.47 74.1636 166.329 76.9373 167.346C76.9373 167.346 76.939 167.346 76.9425 167.346C80.1679 168.537 82.4583 169.954 82.4793 170.017L82.2587 170.502L82.1851 170.655L89.1245 170.876L95.3337 171.077H95.4755V171.092L96.1059 180.968Z" fill="white"/>
<mask id="mask15_136_2547" style="mask-type:luminance" maskUnits="userSpaceOnUse" x="63" y="165" width="34" height="19">
<path d="M96.1059 180.968C96.1059 180.968 66.3995 185.969 64.2615 181.885C64.0461 181.474 63.9043 180.984 63.8307 180.43C63.132 175.503 67.3923 165.786 67.3923 165.786C70.6965 165.47 74.1636 166.329 76.9373 167.346C76.9373 167.346 76.939 167.346 76.9425 167.346C80.1679 168.537 82.4583 169.954 82.4793 170.017L82.2587 170.502L82.1851 170.655L89.1245 170.876L95.3337 171.077H95.4755V171.092L96.1059 180.968Z" fill="white"/>
</mask>
<g mask="url(#mask15_136_2547)">
<path opacity="0.2" d="M82.2587 170.502C75.4611 170.634 72.8818 171.572 72.8818 171.572C72.8818 171.572 74.5996 168.858 76.9372 167.346C76.9372 167.346 76.939 167.346 76.9425 167.346C80.1679 168.537 82.4583 169.954 82.4793 170.017L82.2587 170.502Z" fill="#F17199"/>
<path opacity="0.2" d="M96.1059 180.968C96.1059 180.968 66.3995 185.969 64.2614 181.885C64.0461 181.474 63.9042 180.984 63.8307 180.431C64.5924 180.72 65.3699 180.91 66.1263 180.936C70.0136 181.073 89.6183 178.644 89.6183 178.644L89.1245 170.876L89.1087 170.624C90.9894 170.718 93.0591 170.861 95.3337 171.077L95.4755 171.093L96.1059 180.968Z" fill="#F17199"/>
</g>
<path d="M96.1059 180.968C96.1059 180.968 66.3995 185.969 64.2615 181.885C64.0461 181.474 63.9043 180.984 63.8307 180.43C63.132 175.503 67.3923 165.786 67.3923 165.786C70.6965 165.47 74.1636 166.329 76.9373 167.346C76.9373 167.346 76.939 167.346 76.9425 167.346C80.1679 168.537 82.4583 169.954 82.4793 170.017L82.2587 170.502L82.1851 170.655L89.1245 170.876L95.3337 171.077H95.4755V171.092L96.1059 180.968Z" stroke="#263238" stroke-linecap="round" stroke-linejoin="round"/>
<path d="M82.1799 170.655C82.1799 170.655 75.1617 170.471 72.1727 171.846" stroke="#263238" stroke-linecap="round" stroke-linejoin="round"/>
<path d="M145.328 168.658C145.328 168.658 142.575 155.9 147.912 149.724" stroke="#263238" stroke-linecap="round" stroke-linejoin="round"/>
<path d="M150.003 156.073C150.003 156.073 146.389 158.698 145.737 162.966" stroke="#263238" stroke-linecap="round" stroke-linejoin="round"/>
<path d="M82.1799 148.232C82.1799 148.232 87.0495 157.765 84.2391 169.359" stroke="#263238" stroke-linecap="round" stroke-linejoin="round"/>
<path d="M78.6498 152.648C78.6498 152.648 82.5003 154.998 84.2391 158.666" stroke="#263238" stroke-linecap="round" stroke-linejoin="round"/>
<path d="M126.795 136.686C126.795 136.686 121.1 151.268 104.154 143.363" stroke="#263238" stroke-linecap="round" stroke-linejoin="round"/>
<path d="M153.197 146.572C153.197 146.572 149.525 148.717 147.87 153.46" stroke="#263238" stroke-linecap="round" stroke-linejoin="round"/>
<path d="M76.9005 146.572C76.9005 146.572 79.8002 148.106 81.4445 151.795" stroke="#263238" stroke-linecap="round" stroke-linejoin="round"/>
<path d="M101.916 136.212C101.916 136.212 103.802 143.979 114.634 144.153" stroke="#263238" stroke-linecap="round" stroke-linejoin="round"/>
<path d="M137.196 144.153C137.196 144.153 117.061 163.888 102.788 164.605" stroke="#263238" stroke-linecap="round" stroke-linejoin="round"/>
<path d="M91.4937 147.489C91.4937 147.489 94.2831 153.771 99.3681 156.074" stroke="#263238" stroke-linecap="round" stroke-linejoin="round"/>
<path d="M134.144 180.968C134.144 180.968 163.85 185.969 165.988 181.885C166.204 181.474 166.345 180.984 166.419 180.43C167.118 175.503 162.857 165.786 162.857 165.786C159.553 165.47 156.086 166.329 153.312 167.346C150.087 168.537 147.797 169.954 147.776 170.017L147.996 170.502L148.07 170.655L141.13 170.876L134.921 171.077H134.779V171.092L134.149 180.968H134.144Z" fill="white"/>
<mask id="mask16_136_2547" style="mask-type:luminance" maskUnits="userSpaceOnUse" x="134" y="165" width="33" height="19">
<path d="M134.144 180.968C134.144 180.968 163.85 185.969 165.988 181.885C166.204 181.474 166.345 180.984 166.419 180.43C167.118 175.503 162.857 165.786 162.857 165.786C159.553 165.47 156.086 166.329 153.312 167.346C150.087 168.537 147.797 169.954 147.776 170.017L147.996 170.502L148.07 170.655L141.13 170.876L134.921 171.077H134.779V171.092L134.149 180.968H134.144Z" fill="white"/>
</mask>
<g mask="url(#mask16_136_2547)">
<path opacity="0.2" d="M147.991 170.502C154.789 170.634 157.368 171.572 157.368 171.572C157.368 171.572 155.65 168.858 153.312 167.346C150.087 168.537 147.797 169.954 147.776 170.017L147.996 170.502H147.991Z" fill="#F17199"/>
<path opacity="0.2" d="M134.144 180.968C134.144 180.968 163.85 185.969 165.988 181.885C166.204 181.474 166.345 180.984 166.419 180.431C165.657 180.72 164.88 180.91 164.123 180.936C160.236 181.073 140.631 178.644 140.631 178.644L141.125 170.876L141.141 170.624C139.26 170.718 137.191 170.861 134.916 171.077C134.869 171.082 134.821 171.087 134.774 171.093L134.144 180.968Z" fill="#F17199"/>
</g>
<path d="M134.144 180.968C134.144 180.968 163.85 185.969 165.988 181.885C166.204 181.474 166.345 180.984 166.419 180.43C167.118 175.503 162.857 165.786 162.857 165.786C159.553 165.47 156.086 166.329 153.312 167.346C150.087 168.537 147.797 169.954 147.776 170.017L147.996 170.502L148.07 170.655L141.13 170.876L134.921 171.077H134.779V171.092L134.149 180.968H134.144Z" stroke="#263238" stroke-linecap="round" stroke-linejoin="round"/>
<path d="M148.065 170.655C148.065 170.655 155.083 170.471 158.072 171.846" stroke="#263238" stroke-linecap="round" stroke-linejoin="round"/>
<path d="M125.114 136.718C125.114 136.718 121.904 142.525 114.439 142.162C108.33 141.856 104.154 137.208 104.154 137.208C106.349 135.422 106.675 131.1 106.523 128.265C106.523 128.202 106.523 128.139 106.512 128.076C106.502 127.891 106.486 127.707 106.47 127.528C106.302 125.478 105.913 123.934 105.913 123.934L124.2 124.851C123.412 127.043 123.065 128.877 122.997 130.389C122.955 131.338 123.018 132.16 123.138 132.871C123.138 132.903 123.149 132.924 123.154 132.95C123.659 135.68 125.114 136.713 125.114 136.713V136.718Z" fill="white" stroke="#263238" stroke-miterlimit="10"/>
<path d="M84.2391 178.491V180.451C84.2391 181.068 84.7382 181.568 85.3528 181.568H144.219C144.834 181.568 145.333 181.068 145.333 180.451V178.491H84.2444H84.2391Z" fill="#757575" stroke="#263238" stroke-linecap="round" stroke-linejoin="round"/>
<path d="M152.556 149.65L144.971 178.064C144.813 178.638 144.335 179.139 143.783 179.36C143.584 179.439 143.384 179.487 143.174 179.487H86.3877C86.1828 179.487 85.9779 179.439 85.7783 179.36C85.2267 179.139 84.7487 178.638 84.5911 178.064L77.0056 149.65C76.7955 148.865 77.2577 148.232 78.0404 148.232H151.521C152.304 148.232 152.766 148.87 152.556 149.65Z" fill="#BFBFBF" stroke="#263238" stroke-miterlimit="10"/>
<path d="M151.322 151.141L143.783 179.36C143.584 179.439 143.384 179.487 143.174 179.487H86.3877C86.1828 179.487 85.9779 179.439 85.7783 179.36L78.2401 151.141C78.0299 150.356 78.4922 149.723 79.2749 149.723H150.281C151.064 149.723 151.526 150.361 151.316 151.141H151.322Z" fill="#999999" stroke="#263238" stroke-linecap="round" stroke-linejoin="round"/>
<path d="M118.631 167.019C116.95 167.019 115.59 166.007 115.59 164.763C115.59 164.473 115.663 164.205 115.8 163.952C115.474 163.894 115.138 163.857 114.791 163.857C112.438 163.857 110.526 165.274 110.526 167.019C110.526 168.763 112.433 170.181 114.791 170.181C117.15 170.181 119.057 168.763 119.057 167.019C119.057 167.008 119.057 167.003 119.057 166.998C118.92 167.013 118.784 167.019 118.637 167.019H118.631Z" fill="#BFBFBF" stroke="#263238" stroke-miterlimit="10"/>
<path d="M124.2 124.85C123.412 127.043 123.065 128.876 122.997 130.389C121.011 132.381 118.579 133.867 115.894 133.445C112.012 132.829 108.782 129.952 106.47 127.522C106.302 125.472 105.914 123.928 105.914 123.928L124.2 124.845V124.85Z" fill="#263238"/>
<path d="M127.924 111.497C127.924 111.497 129.4 109.89 130.12 110.417C130.845 110.944 131.701 112.44 131.307 113.805C130.913 115.17 129.201 117.552 129.069 118.938C128.938 120.324 128.05 121.894 127.078 120.977C126.107 120.06 127.924 111.492 127.924 111.492V111.497Z" fill="white" stroke="#263238" stroke-miterlimit="10"/>
<path d="M101.643 111.497C101.643 111.497 100.167 109.89 99.4417 110.417C98.7168 110.944 97.8605 112.44 98.2545 113.805C98.6485 115.17 100.361 117.552 100.492 118.938C100.624 120.324 101.511 121.894 102.483 120.977C103.455 120.06 101.637 111.492 101.637 111.492L101.643 111.497Z" fill="white" stroke="#263238" stroke-miterlimit="10"/>
<path d="M114.471 92.9158C133.014 92.9158 128.607 117.694 125.193 125.646C123.995 128.439 117.786 132.107 114.781 132.107C111.986 132.107 105.598 127.728 104.464 125.103C101.012 117.109 96.7941 92.9158 114.471 92.9158Z" fill="white" stroke="#263238" stroke-miterlimit="10"/>
<path d="M117.617 112.683C117.617 112.683 122.345 111.813 123.937 113.684" stroke="#263238" stroke-linecap="round" stroke-linejoin="round"/>
<path d="M121.19 116.261C121.19 116.83 120.901 117.294 120.544 117.294C120.186 117.294 119.897 116.83 119.897 116.261C119.897 115.692 120.186 115.228 120.544 115.228C120.901 115.228 121.19 115.692 121.19 116.261Z" fill="#263238"/>
<path d="M111.949 112.683C111.949 112.683 107.589 112.298 105.625 113.684" stroke="#263238" stroke-linecap="round" stroke-linejoin="round"/>
<path d="M108.377 116.261C108.377 116.83 108.666 117.294 109.023 117.294C109.381 117.294 109.67 116.83 109.67 116.261C109.67 115.692 109.381 115.228 109.023 115.228C108.666 115.228 108.377 115.692 108.377 116.261Z" fill="#263238"/>
<path d="M122.151 99.2553C122.151 99.2553 115.501 101.764 107.862 99.2553C107.862 99.2553 105.362 99.1078 104.374 100.373C103.387 101.637 104.374 105.532 104.637 107.118C104.9 108.704 102.462 109.805 102.793 113.81L101.853 115.191C101.853 115.191 99.2368 108.741 99.8935 103.192C100.55 97.6428 104.043 95.4875 104.043 95.4875C104.043 95.4875 105.635 90.6973 114.965 90.7289C125.024 90.7658 126.038 96.2305 126.038 96.2305C126.038 96.2305 132.857 100.794 127.814 115.66L126.721 113.81C126.721 113.81 127.252 110.817 125.45 108.172C124.573 106.886 125.975 103.018 125.644 101.037C125.313 99.0551 122.156 99.2553 122.156 99.2553H122.151Z" fill="#263238"/>
<path d="M115.889 115.223C115.889 115.223 116.168 119.454 116.987 121.062C117.801 122.669 114.944 122.943 113.72 121.989" stroke="#263238" stroke-linecap="round" stroke-linejoin="round"/>
<path d="M111.219 125.383C111.219 126.031 113.341 126.837 115.422 126.837C117.502 126.837 119.067 125.957 118.757 125.636" stroke="#263238" stroke-linecap="round" stroke-linejoin="round"/>
<path d="M127.704 101.964C127.704 101.964 124.982 105.674 118.805 108.24V106.475C118.805 106.475 113.221 109.705 108.188 109.215L109.328 106.917C109.328 106.917 105.089 111.423 101.501 111.249C97.913 111.075 96.8729 90.7341 114.97 90.7341C129.679 90.7341 127.709 101.969 127.709 101.969L127.704 101.964Z" fill="#263238"/>
<path d="M124.651 103.197C124.651 103.197 123.685 108.578 128.744 112.514C128.744 112.514 131.743 109.284 130.587 103.197C129.432 97.1106 126.795 96.9209 126.795 96.9209L124.657 103.197H124.651Z" fill="#263238"/>
<path opacity="0.2" d="M122.403 94.792C122.403 94.792 120.517 102.828 113.583 106.912" stroke="white" stroke-miterlimit="10"/>
<path opacity="0.2" d="M117.99 94.792C117.99 94.792 114.917 102.697 103.492 104.014" stroke="white" stroke-miterlimit="10"/>
<path opacity="0.2" d="M125.114 97.7483C125.114 97.7483 125.161 101.906 122.403 104.014" stroke="white" stroke-miterlimit="10"/>
<path d="M196.646 41.1514L208.376 34.0847" stroke="#263238" stroke-linecap="round" stroke-linejoin="round"/>
<path d="M201.494 49.625L211.68 48.9768" stroke="#263238" stroke-linecap="round" stroke-linejoin="round"/>
<path d="M34.4132 189.736H26.2866V182.733C26.2866 182.09 26.8067 181.568 27.4476 181.568H202.119C202.76 181.568 203.28 182.09 203.28 182.733V189.736" fill="white"/>
<path d="M34.4132 189.736H26.2866V182.733C26.2866 182.09 26.8067 181.568 27.4476 181.568H202.119C202.76 181.568 203.28 182.09 203.28 182.733V189.736" stroke="#263238" stroke-miterlimit="10"/>
<path d="M193.846 189.736H121.19" stroke="#263238" stroke-miterlimit="10"/>
<path d="M115.989 189.736H110.767" stroke="#263238" stroke-miterlimit="10"/>
<path d="M76.9583 189.736H38.6157" stroke="#263238" stroke-miterlimit="10"/>
</g>
<defs>
<clipPath id="clip0_136_2547">
<rect width="226" height="190" fill="white"/>
</clipPath>
</defs>
</svg>
