<svg width="829" height="656" viewBox="0 0 829 656" fill="none" xmlns="http://www.w3.org/2000/svg">
<mask id="mask0_328_1889" style="mask-type:luminance" maskUnits="userSpaceOnUse" x="0" y="0" width="984" height="656">
<path d="M984 0H0V656H984V0Z" fill="white"/>
</mask>
<g mask="url(#mask0_328_1889)">
<mask id="mask1_328_1889" style="mask-type:luminance" maskUnits="userSpaceOnUse" x="0" y="0" width="984" height="656">
<path d="M984 0H0V656H984V0Z" fill="white"/>
</mask>
<g mask="url(#mask1_328_1889)">
<g opacity="0.23">
<path d="M549.124 221.164V179.718H516.679C515.931 175.204 514.894 170.796 513.596 166.506L542.801 149.647L522.084 113.763L493.981 129.993C491.095 126.503 487.985 123.21 484.692 120.113L501.578 90.8821L465.694 70.1656L449.478 98.2555C445.267 96.6811 440.924 95.3691 436.476 94.3326V60.6011H395.03V93.0468C390.517 93.7947 386.108 94.8312 381.818 96.1301L364.959 66.9249L329.076 87.6414L345.305 115.744C341.815 118.631 338.522 121.74 335.426 125.033L306.195 108.148L285.478 144.031L313.568 160.247C311.994 164.459 310.682 168.802 309.645 173.249H275.914V214.695H308.359C309.107 219.209 310.144 223.617 311.443 227.907L282.237 244.767L302.954 280.65L331.057 264.42C333.943 267.91 337.053 271.203 340.346 274.3L323.46 303.531L359.344 324.247L375.56 296.158C379.772 297.732 384.114 299.044 388.562 300.08V333.812H430.008V301.366C434.521 300.618 438.93 299.582 443.22 298.283L460.079 327.488L495.962 306.772L479.733 278.669C483.223 275.782 486.516 272.673 489.612 269.38L518.844 286.265L539.56 250.382L511.47 234.166C513.044 229.954 514.356 225.611 515.393 221.164H549.124ZM412.506 269.996C372.306 269.996 339.716 237.406 339.716 197.207C339.716 157.007 372.306 124.417 412.506 124.417C452.706 124.417 485.296 157.007 485.296 197.207C485.296 237.406 452.706 269.996 412.506 269.996Z" fill="#E81255"/>
<path d="M412.506 220.521C425.382 220.521 435.82 210.083 435.82 197.207C435.82 184.331 425.382 173.893 412.506 173.893C399.63 173.893 389.192 184.331 389.192 197.207C389.192 210.083 399.63 220.521 412.506 220.521Z" fill="#E81255"/>
</g>
<g opacity="0.05">
<path d="M318.698 191.578C354.718 191.578 383.917 162.379 383.917 126.359C383.917 90.3392 354.718 61.1394 318.698 61.1394C282.678 61.1394 253.478 90.3392 253.478 126.359C253.478 162.379 282.678 191.578 318.698 191.578Z" fill="#E81255"/>
<path d="M644.245 588.537C664.12 588.537 680.233 572.425 680.233 552.549C680.233 532.673 664.12 516.561 644.245 516.561C624.369 516.561 608.256 532.673 608.256 552.549C608.256 572.425 624.369 588.537 644.245 588.537Z" fill="#E81255"/>
<path d="M679.104 116.243C700.842 116.243 718.464 98.6214 718.464 76.8834C718.464 55.1455 700.842 37.5234 679.104 37.5234C657.366 37.5234 639.744 55.1455 639.744 76.8834C639.744 98.6214 657.366 116.243 679.104 116.243Z" fill="#E81255"/>
<path d="M557.653 417.61C588.086 417.61 612.757 392.939 612.757 362.506C612.757 332.073 588.086 307.402 557.653 307.402C527.219 307.402 502.549 332.073 502.549 362.506C502.549 392.939 527.219 417.61 557.653 417.61Z" fill="#E81255"/>
<path d="M839.916 527.818C872.212 527.818 898.392 501.637 898.392 469.342C898.392 437.047 872.212 410.866 839.916 410.866C807.621 410.866 781.44 437.047 781.44 469.342C781.44 501.637 807.621 527.818 839.916 527.818Z" fill="#E81255"/>
<path d="M249.542 545.792C270.034 545.792 286.646 529.18 286.646 508.689C286.646 488.197 270.034 471.585 249.542 471.585C229.051 471.585 212.439 488.197 212.439 508.689C212.439 529.18 229.051 545.792 249.542 545.792Z" fill="#E81255"/>
<path d="M409.436 313.102C417.855 302.736 416.276 287.507 405.909 279.089C395.543 270.67 380.314 272.249 371.896 282.616C363.477 292.982 365.056 308.21 375.422 316.629C385.789 325.048 401.017 323.469 409.436 313.102Z" fill="#E81255"/>
<path d="M749.007 210.897C756.252 203.652 756.252 191.906 749.007 184.661C741.762 177.416 730.016 177.416 722.771 184.661C715.526 191.906 715.526 203.652 722.771 210.897C730.016 218.142 741.762 218.142 749.007 210.897Z" fill="#E81255"/>
<path d="M117.975 370.378C144.061 370.378 165.207 349.231 165.207 323.146C165.207 297.06 144.061 275.914 117.975 275.914C91.8896 275.914 70.7431 297.06 70.7431 323.146C70.7431 349.231 91.8896 370.378 117.975 370.378Z" fill="#E81255"/>
<path d="M650.909 560.775L556.708 363.542L396.185 300.855L249.464 511.116L132.289 314.736L351.826 120.914L352.193 120.849L695.806 63.5798L729.328 197.653L905.004 211.468L904.716 212.912L855.398 461.509L854.807 461.798L650.923 560.775H650.909ZM395.214 297.654L558.623 361.469L558.846 361.942L652.143 557.259L853.062 459.725L901.843 213.856L727.228 200.12L727.005 199.201L693.838 66.5581L352.994 123.368L135.648 315.248L249.621 506.262L395.201 297.641L395.214 297.654Z" fill="#E81255"/>
</g>
<g opacity="0.05">
<path d="M377.219 74.2344C387.925 53.9534 380.164 28.8331 359.883 18.1266C339.602 7.42008 314.482 15.1817 303.775 35.4627C293.068 55.7436 300.83 80.8639 321.111 91.5704C341.392 102.277 366.512 94.5153 377.219 74.2344Z" fill="#E81255"/>
<path d="M111.297 165.798C107.112 152.612 114.42 138.521 127.605 134.336C140.791 130.151 154.882 137.458 159.067 150.644C163.252 163.83 155.944 177.921 142.759 182.106C129.573 186.291 115.482 178.983 111.297 165.798Z" fill="#E81255"/>
<path d="M162.414 -4.4612C181.214 -9.14862 192.655 -28.1891 187.967 -46.9893C183.28 -65.7895 164.239 -77.2302 145.439 -72.5427C126.639 -67.8553 115.198 -48.8149 119.886 -30.0147C124.573 -11.2145 143.614 0.226211 162.414 -4.4612Z" fill="#E81255"/>
<path d="M-5.57411 -30.5893C4.58601 -48.4598 -1.6645 -71.1831 -19.535 -81.3433C-37.4055 -91.5034 -60.1288 -85.2529 -70.289 -67.3823C-80.4491 -49.5118 -74.1986 -26.7885 -56.3281 -16.6284C-38.4575 -6.46826 -15.7342 -12.7188 -5.57411 -30.5893Z" fill="#E81255"/>
<path d="M66.2035 99.358C64.2355 93.1391 67.673 86.5004 73.8919 84.5324C80.1107 82.5644 86.7495 86.0018 88.7175 92.2207C90.6855 98.4396 87.248 105.078 81.0291 107.046C74.8103 109.014 68.1715 105.577 66.2035 99.358Z" fill="#E81255"/>
<path d="M59.1843 -140.869L154.304 -39.3071L263.778 -32.1567L312.361 -187.996L421.257 -91.3673L325.323 68.4999L325.114 68.6049L127.605 169.485L81.4621 94.5693L-27.8013 119.996L-27.9063 119.064L-45.8151 -41.2883L-45.5133 -41.5769L59.1712 -140.869H59.1843ZM264.985 -30.3987L153.53 -37.6803L153.307 -37.9164L59.1056 -138.494L-44.057 -40.6454L-26.345 117.949L82.2624 92.6801L82.5772 93.1917L128.222 167.307L324.143 67.2404L419.105 -91.0262L313.174 -185.018L264.971 -30.3987H264.985Z" fill="#E81255"/>
</g>
<g opacity="0.05">
<path d="M288.737 515.02C298.914 512.853 305.407 502.846 303.24 492.669C301.073 482.492 291.067 475.998 280.89 478.165C270.712 480.332 264.219 490.339 266.386 500.516C268.553 510.693 278.56 517.187 288.737 515.02Z" fill="#E81255"/>
<path d="M92.1053 581.362C98.0418 574.676 97.4339 564.443 90.7474 558.506C84.061 552.57 73.828 553.178 67.8915 559.864C61.955 566.551 62.5629 576.784 69.2494 582.72C75.9359 588.657 86.1688 588.049 92.1053 581.362Z" fill="#E81255"/>
<path d="M280.633 630.651C295.011 623.784 301.1 606.561 294.233 592.183C287.366 577.805 270.143 571.716 255.765 578.583C241.387 585.451 235.298 602.673 242.165 617.052C249.032 631.43 266.255 637.518 280.633 630.651Z" fill="#E81255"/>
<path d="M149.739 460C159.014 445.87 177.986 441.921 192.129 451.197C206.259 460.473 210.209 479.444 200.933 493.588C191.657 507.718 172.685 511.667 158.542 502.391C144.412 493.115 140.463 474.144 149.739 460Z" fill="#E81255"/>
<path d="M428.814 618.411C434.705 609.437 446.736 606.944 455.71 612.822C464.684 618.713 467.177 630.744 461.299 639.718C455.408 648.692 443.377 651.185 434.403 645.307C425.429 639.416 422.936 627.385 428.814 618.411Z" fill="#E81255"/>
<path d="M134.769 620.196C137.708 615.709 143.73 614.462 148.217 617.401C152.704 620.34 153.95 626.362 151.011 630.849C148.072 635.336 142.05 636.583 137.563 633.644C133.076 630.705 131.83 624.683 134.769 620.196Z" fill="#E81255"/>
<path d="M284.324 491.029L268.934 604.412L321.204 677.937L445.804 628.028L440.714 747.63L288.968 769.436L288.784 769.357L121.937 695.767L145.763 627.451L72.8291 570.969L73.3671 570.418L166.335 475.758L166.676 475.797L284.337 491.016L284.324 491.029ZM320.705 679.629L267.504 604.78L267.543 604.504L282.788 492.223L166.834 477.227L74.889 570.838L147.377 626.979L147.22 627.451L123.656 695.032L289.165 768.032L439.389 746.436L444.348 630.101L320.718 679.616L320.705 679.629Z" fill="#E81255"/>
</g>
<g opacity="0.05">
<path d="M801.028 626.306C802.442 604.614 786.004 585.883 764.312 584.469C742.62 583.055 723.889 599.493 722.475 621.185C721.06 642.877 737.499 661.608 759.191 663.022C780.883 664.436 799.614 647.998 801.028 626.306Z" fill="#E81255"/>
<path d="M676.17 413.272C690.908 404.643 695.86 385.699 687.23 370.961C678.601 356.223 659.658 351.271 644.919 359.9C630.181 368.53 625.229 387.473 633.859 402.212C642.488 416.95 661.432 421.902 676.17 413.272Z" fill="#E81255"/>
<path d="M842.606 265.929C874.901 265.929 901.081 239.749 901.081 207.454C901.081 175.158 874.901 148.978 842.606 148.978C810.31 148.978 784.13 175.158 784.13 207.454C784.13 239.749 810.31 265.929 842.606 265.929Z" fill="#E81255"/>
<path d="M765.119 481.399C770.734 472.832 782.241 470.444 790.808 476.059C799.375 481.675 801.763 493.181 796.148 501.748C790.532 510.316 779.026 512.704 770.459 507.088C761.891 501.473 759.504 489.967 765.119 481.399Z" fill="#E81255"/>
<path d="M1050.79 234.651L1021.39 451.236L1121.24 591.699L1359.25 496.356L1349.52 724.828L1059.65 766.484L1059.31 766.326L740.585 625.745L786.098 495.254L646.79 387.342L647.826 386.292L825.419 205.472L826.061 205.551L1050.82 234.612L1050.79 234.651ZM1120.29 594.913L1018.65 451.918L1018.72 451.407L1047.83 236.921L826.337 208.28L650.7 387.106L789.168 494.362L788.853 495.254L743.825 624.355L1059.99 763.794L1346.96 722.558L1356.42 500.318L1120.26 594.913H1120.29Z" fill="#E81255"/>
</g>
<g opacity="0.05">
<path d="M876.639 143.862C881.021 127.138 871.015 110.028 854.29 105.647C837.566 101.265 820.456 111.272 816.075 127.996C811.693 144.721 821.699 161.83 838.424 166.212C855.148 170.593 872.258 160.587 876.639 143.862Z" fill="#E81255"/>
<path d="M672.374 54.7237C678.094 45.9989 689.81 43.5716 698.535 49.292C707.26 55.0123 709.687 66.7284 703.967 75.4532C698.246 84.178 686.53 86.6053 677.805 80.8849C669.081 75.1646 666.653 63.4485 672.374 54.7237Z" fill="#E81255"/>
<path d="M815.947 8.5041C830.402 6.39536 840.41 -7.0321 838.301 -21.487C836.193 -35.9419 822.765 -45.9504 808.31 -43.8416C793.855 -41.7329 783.847 -28.3055 785.956 -13.8506C788.064 0.604307 801.492 10.6128 815.947 8.5041Z" fill="#E81255"/>
<path d="M697.658 10.5749C702.57 10.3063 706.335 6.10602 706.067 1.19334C705.798 -3.71934 701.598 -7.48406 696.685 -7.21542C691.772 -6.94678 688.008 -2.7465 688.276 2.16618C688.545 7.07886 692.745 10.8436 697.658 10.5749Z" fill="#E81255"/>
<path d="M826.875 -121.714L812.758 -17.7512L860.685 49.6725L974.934 3.90991L970.263 113.58L831.113 133.575L830.942 133.496L677.95 66.02L699.795 3.38512L632.922 -48.4127L633.42 -48.9243L718.661 -135.713L718.976 -135.674L826.862 -121.727L826.875 -121.714ZM860.239 51.2206L811.459 -17.4101L811.498 -17.6594L825.471 -120.612L719.147 -134.362L634.837 -48.5176L701.303 2.96527L701.159 3.39822L679.55 65.364L831.309 132.302L969.056 112.504L973.596 5.82544L860.239 51.2338V51.2206Z" fill="#E81255"/>
</g>
<g opacity="0.05">
<path d="M472.439 46.676C489.718 46.0968 503.256 31.6197 502.677 14.3405C502.098 -2.93872 487.621 -16.4767 470.342 -15.8975C453.062 -15.3182 439.524 -0.841078 440.104 16.4381C440.683 33.7173 455.16 47.2553 472.439 46.676Z" fill="#E81255"/>
<path d="M625.511 -1.85288C628.121 -14.099 620.309 -26.1419 608.063 -28.7516C595.817 -31.3612 583.774 -23.5495 581.164 -11.3034C578.554 0.942682 586.366 12.9857 598.612 15.5954C610.858 18.2051 622.901 10.3932 625.511 -1.85288Z" fill="#E81255"/>
<path d="M451.958 -242.287L437.841 -138.324L485.768 -70.9003L600.017 -116.663L595.346 -6.99277L456.196 13.0021L456.025 12.9234L303.033 -54.5528L324.877 -117.188L258.005 -168.985L258.503 -169.497L343.744 -256.286L344.059 -256.247L451.945 -242.3L451.958 -242.287ZM485.309 -69.3653L436.529 -137.996L436.568 -138.245L450.541 -241.198L344.216 -254.948L259.907 -169.104L326.373 -117.621L326.229 -117.188L304.62 -55.2219L456.379 11.7163L594.126 -8.08176L598.666 -114.76L485.309 -69.3521V-69.3653Z" fill="#E81255"/>
</g>
<g opacity="0.05">
<path d="M103.301 436.157C119.111 429.16 126.256 410.672 119.26 394.862C112.264 379.052 93.7757 371.907 77.9656 378.903C62.1555 385.899 55.0104 404.387 62.0066 420.198C69.0027 436.008 87.4908 443.153 103.301 436.157Z" fill="#E81255"/>
<path d="M80.8592 169.571C88.9565 164.521 91.4269 153.863 86.377 145.766C81.327 137.669 70.6691 135.198 62.5718 140.248C54.4745 145.298 52.0042 155.956 57.0541 164.053C62.104 172.151 72.762 174.621 80.8592 169.571Z" fill="#E81255"/>
<path d="M34.322 239.48C42.3383 227.265 58.7251 223.854 70.9399 231.87C83.1546 239.886 86.5658 256.273 78.5495 268.488C70.5331 280.703 54.1463 284.114 41.9315 276.097C29.7168 268.081 26.3056 251.694 34.322 239.48Z" fill="#E81255"/>
<path d="M-0.727389 138.59C0.278205 123.124 -11.4446 109.77 -26.9111 108.765C-42.3776 107.759 -55.7309 119.482 -56.7365 134.949C-57.7421 150.415 -46.0192 163.768 -30.5527 164.774C-15.0862 165.78 -1.73298 154.057 -0.727389 138.59Z" fill="#E81255"/>
<path d="M203.701 266.664C209.093 258.438 220.141 256.142 228.367 261.534C236.593 266.927 238.889 277.974 233.497 286.2C228.104 294.426 217.057 296.722 208.831 291.33C200.605 285.938 198.309 274.891 203.701 266.664Z" fill="#E81255"/>
<path d="M96.7338 317.544C100.25 312.191 107.44 310.695 112.806 314.211C118.159 317.727 119.654 324.917 116.138 330.283C112.622 335.636 105.432 337.132 100.066 333.616C94.7133 330.099 93.2176 322.91 96.7338 317.544Z" fill="#E81255"/>
<path d="M223.775 408.199C236.277 407.511 245.855 396.818 245.167 384.316C244.479 371.814 233.786 362.237 221.284 362.925C208.782 363.613 199.204 374.306 199.892 386.808C200.58 399.31 211.273 408.887 223.775 408.199Z" fill="#E81255"/>
<path d="M71.2023 149.857L57.0851 253.82L105.012 321.243L219.261 275.481L214.591 385.151L75.44 405.146L75.2695 405.067L-77.7229 337.591L-55.8781 274.956L-122.751 223.158L-122.252 222.646L-37.0115 135.858L-36.6966 135.897L71.1891 149.844L71.2023 149.857ZM104.566 322.791L55.7863 254.161L55.8256 253.911L69.7984 150.959L-36.5261 137.209L-120.848 223.04L-54.3824 274.523L-54.5267 274.956L-76.1354 336.922L75.6237 403.86L213.371 384.062L217.91 277.383L104.553 322.791H104.566Z" fill="#E81255"/>
</g>
<path opacity="0.21" d="M681.636 472.661V445.555H660.408C659.923 442.603 659.241 439.717 658.388 436.909L677.504 425.875L663.951 402.391L645.556 413.005C643.667 410.722 641.634 408.57 639.482 406.537L650.529 387.408L627.044 373.855L616.43 392.236C613.675 391.212 610.841 390.347 607.928 389.664V367.596H580.822V388.825C577.87 389.31 574.984 389.992 572.176 390.845L561.142 371.729L537.658 385.282L548.272 403.676C545.989 405.566 543.837 407.599 541.804 409.751L522.675 398.704L509.122 422.189L527.017 432.514C525.928 435.348 525.049 438.287 524.38 441.291H502.876V468.397H524.105C524.59 471.349 525.272 474.236 526.125 477.043L507.009 488.077L520.562 511.562L538.956 500.948C540.846 503.231 542.879 505.383 545.031 507.416L533.984 526.545L557.469 540.098L568.083 521.717C570.838 522.74 573.672 523.606 576.585 524.289V546.356H603.691V525.128C606.643 524.643 609.529 523.961 612.337 523.108L623.371 542.224L646.855 528.671L636.241 510.276C638.524 508.387 640.676 506.354 642.709 504.202L661.838 515.249L675.391 491.764L657.01 481.15C658.034 478.395 658.9 475.561 659.582 472.648H681.65L681.636 472.661Z" fill="#E81255"/>
<g opacity="0.2">
<path d="M564.724 385.151C551.998 385.151 541.672 374.838 541.672 362.099C541.672 349.359 551.985 339.047 564.724 339.047C577.464 339.047 587.776 349.359 587.776 362.099C587.776 374.838 577.464 385.151 564.724 385.151Z" fill="#E81255"/>
<path d="M585.559 195.685C585.559 199.765 582.252 203.071 578.172 203.071C574.092 203.071 570.786 199.765 570.786 195.685C570.786 191.605 574.092 188.298 578.172 188.298C582.252 188.298 585.559 191.605 585.559 195.685Z" fill="#E81255"/>
</g>
<path d="M658.231 456.508C660.165 448.313 655.09 440.102 646.895 438.168C638.7 436.234 630.489 441.309 628.555 449.504C626.621 457.698 631.696 465.909 639.891 467.843C648.086 469.777 656.297 464.702 658.231 456.508Z" fill="#E81255"/>
<g opacity="0.64">
<path d="M289.348 489.613L583.184 339.152L682.948 452.877L341.828 343.98L312.964 282.316L368.068 237.708L492.708 283.628L630.468 210.156L660.644 275.756L613.412 459.437L396.539 507.495L289.348 494.861" stroke="#E81255" stroke-miterlimit="10"/>
<path d="M707.876 448.941L640.964 517.165L326.084 431.885L339.808 423.12C339.808 423.12 306.404 397.773 303.78 396.461C301.156 395.149 259.172 266.573 259.172 266.573L469.971 329.116L703.94 230.912L734.116 364.973L707.876 448.941Z" stroke="#E81255" stroke-miterlimit="10"/>
<path d="M375.494 300.238L330.02 169.484L423.172 135.372L518.948 157.676L616.036 124.876L663.268 186.54V219.34L614.724 300.684L631.78 370.22L378.564 484.364L289.348 424.012L375.494 300.238Z" stroke="#E81255" stroke-miterlimit="10"/>
<path d="M525.062 156.365C525.062 159.028 522.911 161.18 520.247 161.18C517.584 161.18 515.432 159.028 515.432 156.365C515.432 153.701 517.584 151.55 520.247 151.55C522.911 151.55 525.062 153.701 525.062 156.365Z" fill="#E81255"/>
<path d="M619.093 125.742C619.093 128.406 616.942 130.557 614.278 130.557C611.615 130.557 609.463 128.406 609.463 125.742C609.463 123.079 611.615 120.927 614.278 120.927C616.942 120.927 619.093 123.079 619.093 125.742Z" fill="#E81255"/>
<path d="M668.516 186.317C668.516 188.613 666.653 190.476 664.357 190.476C662.061 190.476 660.198 188.613 660.198 186.317C660.198 184.021 662.061 182.158 664.357 182.158C666.653 182.158 668.516 184.021 668.516 186.317Z" fill="#E81255"/>
<path d="M426.885 134.926C426.885 137.222 425.022 139.085 422.726 139.085C420.43 139.085 418.567 137.222 418.567 134.926C418.567 132.63 420.43 130.767 422.726 130.767C425.022 130.767 426.885 132.63 426.885 134.926Z" fill="#E81255"/>
<path d="M379.653 299.372C379.653 301.668 377.79 303.531 375.494 303.531C373.198 303.531 371.335 301.668 371.335 299.372C371.335 297.076 373.198 295.213 375.494 295.213C377.79 295.213 379.653 297.076 379.653 299.372Z" fill="#E81255"/>
<path d="M291.526 483.918C294.911 483.918 297.653 486.66 297.653 490.045C297.653 493.43 294.911 496.172 291.526 496.172C288.141 496.172 285.399 493.43 285.399 490.045C285.399 486.66 288.141 483.918 291.526 483.918Z" fill="#E81255"/>
<path d="M310.773 396.461C310.773 398.757 308.91 400.62 306.614 400.62C304.318 400.62 302.455 398.757 302.455 396.461C302.455 394.165 304.318 392.302 306.614 392.302C308.91 392.302 310.773 394.165 310.773 396.461Z" fill="#E81255"/>
<path d="M388.404 357.966C388.404 360.262 386.541 362.125 384.245 362.125C381.949 362.125 380.086 360.262 380.086 357.966C380.086 355.67 381.949 353.807 384.245 353.807C386.541 353.807 388.404 355.67 388.404 357.966Z" fill="#E81255"/>
<path d="M291.972 421.821C291.972 423.514 290.608 424.878 288.916 424.878C287.223 424.878 285.859 423.514 285.859 421.821C285.859 420.129 287.223 418.764 288.916 418.764C290.608 418.764 291.972 420.129 291.972 421.821Z" fill="#E81255"/>
<path d="M347.457 461.168C347.457 462.861 346.092 464.225 344.4 464.225C342.708 464.225 341.343 462.861 341.343 461.168C341.343 459.476 342.708 458.111 344.4 458.111C346.092 458.111 347.457 459.476 347.457 461.168Z" fill="#E81255"/>
<path d="M381.188 483.918C381.188 485.611 379.824 486.975 378.132 486.975C376.439 486.975 375.075 485.611 375.075 483.918C375.075 482.226 376.439 480.861 378.132 480.861C379.824 480.861 381.188 482.226 381.188 483.918Z" fill="#E81255"/>
<path d="M385.557 446.749C385.557 448.442 384.193 449.806 382.5 449.806C380.808 449.806 379.443 448.442 379.443 446.749C379.443 445.057 380.808 443.692 382.5 443.692C384.193 443.692 385.557 445.057 385.557 446.749Z" fill="#E81255"/>
<path d="M263.318 265.261C263.318 267.557 261.455 269.42 259.159 269.42C256.863 269.42 255 267.557 255 265.261C255 262.965 256.863 261.102 259.159 261.102C261.455 261.102 263.318 262.965 263.318 265.261Z" fill="#E81255"/>
<path d="M316.677 282.749C316.677 285.045 314.814 286.908 312.518 286.908C310.222 286.908 308.359 285.045 308.359 282.749C308.359 280.453 310.222 278.59 312.518 278.59C314.814 278.59 316.677 280.453 316.677 282.749Z" fill="#E81255"/>
<path d="M335.924 169.038C335.924 171.334 334.061 173.197 331.765 173.197C329.469 173.197 327.606 171.334 327.606 169.038C327.606 166.742 329.469 164.879 331.765 164.879C334.061 164.879 335.924 166.742 335.924 169.038Z" fill="#E81255"/>
<path d="M629.156 213.108C630.787 213.108 632.108 211.787 632.108 210.156C632.108 208.526 630.787 207.204 629.156 207.204C627.526 207.204 626.204 208.526 626.204 210.156C626.204 211.787 627.526 213.108 629.156 213.108Z" fill="#E81255"/>
<path d="M634.286 369.446C634.286 371.323 632.765 372.831 630.901 372.831C629.038 372.831 627.516 371.31 627.516 369.446C627.516 367.583 629.038 366.062 630.901 366.062C632.765 366.062 634.286 367.583 634.286 369.446Z" fill="#E81255"/>
<path d="M618.713 377.2C618.713 379.076 617.191 380.585 615.328 380.585C613.465 380.585 611.943 379.063 611.943 377.2C611.943 375.337 613.465 373.815 615.328 373.815C617.191 373.815 618.713 375.337 618.713 377.2Z" fill="#E81255"/>
<path d="M619.316 301.996C619.316 303.872 617.795 305.381 615.932 305.381C614.069 305.381 612.547 303.859 612.547 301.996C612.547 300.133 614.069 298.611 615.932 298.611C617.795 298.611 619.316 300.133 619.316 301.996Z" fill="#E81255"/>
<path d="M663.15 273.998C663.15 275.875 661.629 277.383 659.765 277.383C657.902 277.383 656.38 275.862 656.38 273.998C656.38 272.135 657.902 270.614 659.765 270.614C661.629 270.614 663.15 272.135 663.15 273.998Z" fill="#E81255"/>
<path d="M734.116 368.462C735.986 368.462 737.501 366.947 737.501 365.077C737.501 363.208 735.986 361.692 734.116 361.692C732.247 361.692 730.731 363.208 730.731 365.077C730.731 366.947 732.247 368.462 734.116 368.462Z" fill="#E81255"/>
<path d="M712.14 446.316C712.14 448.193 710.619 449.701 708.756 449.701C706.893 449.701 705.371 448.179 705.371 446.316C705.371 444.453 706.893 442.931 708.756 442.931C710.619 442.931 712.14 444.453 712.14 446.316Z" fill="#E81255"/>
<path d="M685.9 451.446C685.9 453.323 684.379 454.831 682.516 454.831C680.653 454.831 679.131 453.309 679.131 451.446C679.131 449.583 680.653 448.062 682.516 448.062C684.379 448.062 685.9 449.583 685.9 451.446Z" fill="#E81255"/>
<path d="M615.918 459.318C615.918 461.194 614.396 462.703 612.533 462.703C610.67 462.703 609.148 461.181 609.148 459.318C609.148 457.455 610.67 455.933 612.533 455.933C614.396 455.933 615.918 457.455 615.918 459.318Z" fill="#E81255"/>
<path d="M622.045 433.196C622.045 435.072 620.523 436.581 618.66 436.581C616.797 436.581 615.276 435.059 615.276 433.196C615.276 431.333 616.797 429.811 618.66 429.811C620.523 429.811 622.045 431.333 622.045 433.196Z" fill="#E81255"/>
<path d="M654.517 250.71C654.517 254.751 651.237 258.031 647.196 258.031C643.155 258.031 639.876 254.751 639.876 250.71C639.876 246.669 643.155 243.389 647.196 243.389C651.237 243.389 654.517 246.669 654.517 250.71Z" fill="#E81255"/>
<path d="M702.628 239.545C706.672 239.545 709.949 236.268 709.949 232.224C709.949 228.181 706.672 224.903 702.628 224.903C698.585 224.903 695.307 228.181 695.307 232.224C695.307 236.268 698.585 239.545 702.628 239.545Z" fill="#E81255"/>
<path d="M359.75 249.844C362.83 249.844 365.326 247.348 365.326 244.268C365.326 241.189 362.83 238.692 359.75 238.692C356.671 238.692 354.174 241.189 354.174 244.268C354.174 247.348 356.671 249.844 359.75 249.844Z" fill="#E81255"/>
<path d="M352.757 343.81C352.757 347.759 349.556 350.973 345.594 350.973C341.632 350.973 338.43 347.772 338.43 343.81C338.43 339.848 341.632 336.646 345.594 336.646C349.556 336.646 352.757 339.848 352.757 343.81Z" fill="#E81255"/>
<path d="M638.17 522.74C640.916 522.74 643.142 520.514 643.142 517.768C643.142 515.022 640.916 512.795 638.17 512.795C635.424 512.795 633.197 515.022 633.197 517.768C633.197 520.514 635.424 522.74 638.17 522.74Z" fill="#E81255"/>
</g>
<path opacity="0.44" d="M655.187 95.5267C664.725 118.474 653.861 144.819 630.915 154.357C607.968 163.908 581.623 153.032 572.084 130.098C562.533 107.151 573.396 80.8061 596.343 71.2679C619.29 61.7296 645.635 72.5799 655.173 95.5399L655.187 95.5267Z" fill="#E81255"/>
<path d="M653.783 91.0004C663.321 113.947 652.458 140.292 629.511 149.83C606.564 159.382 580.219 148.505 570.681 125.572C561.129 102.625 571.993 76.2797 594.94 66.7415C617.886 57.2033 644.231 68.0535 653.77 91.0135L653.783 91.0004Z" fill="white"/>
<path fill-rule="evenodd" clip-rule="evenodd" d="M643.392 121.491C643.457 125.939 639.902 129.599 635.454 129.665L589.508 130.334C585.06 130.4 581.4 126.844 581.334 122.396L580.94 95.5398C580.875 91.0921 584.43 87.4316 588.878 87.366L634.824 86.6969C639.272 86.6313 642.932 90.1868 642.998 94.6345L643.392 121.491Z" fill="#E81255"/>
<path fill-rule="evenodd" clip-rule="evenodd" d="M641.962 90.8038C640.558 88.3241 637.881 86.6579 634.824 86.6972L588.878 87.3663C585.979 87.4057 583.473 88.9801 582.082 91.3023L611.615 111.507L641.962 90.8038Z" fill="#2F2D2E"/>
<g opacity="0.44">
<path d="M375.875 424.157C371.847 442.105 354.017 453.388 336.082 449.347C318.134 445.319 306.851 427.489 310.892 409.554C314.919 391.606 332.736 380.323 350.684 384.351C368.633 388.392 379.916 406.196 375.875 424.157Z" fill="#E81255"/>
</g>
<path d="M375.875 419.788C371.847 437.736 354.017 449.019 336.082 444.978C318.134 440.95 306.851 423.12 310.892 405.185C314.919 387.237 332.736 375.954 350.684 379.982C368.633 384.023 379.916 401.826 375.875 419.788Z" fill="white"/>
<path d="M337.394 430.52C335.334 432.855 332.028 429.339 334.075 427.03C339.218 421.191 349.661 421.191 353.925 428.001C355.578 430.651 351.341 432.96 349.701 430.336C346.998 426.02 340.346 427.187 337.394 430.52ZM331.018 422.674C336.83 415.878 350.252 414.238 355.382 422.779C356.982 425.442 361.207 423.12 359.606 420.444C352.981 409.41 335.636 409.869 327.698 419.171C325.691 421.519 328.997 425.036 331.031 422.661L331.018 422.674ZM322.385 415.983C332.343 404.135 355.71 401.826 364.329 416.521C365.904 419.197 370.128 416.875 368.554 414.185C358.452 396.985 331.109 398.126 319.052 412.493C317.071 414.854 320.377 418.371 322.385 415.983Z" fill="#E81255"/>
<g opacity="0.2">
<path d="M322.385 415.983C327.344 410.079 335.649 406.537 343.797 406.301L343.915 401.512C334.508 401.617 324.956 405.461 319.065 412.48C317.084 414.842 320.39 418.358 322.398 415.97L322.385 415.983Z" fill="#E81255"/>
<path d="M343.39 422.766C339.913 422.897 336.436 424.341 334.075 427.017C332.028 429.339 335.347 432.842 337.394 430.507C338.785 428.919 341.015 427.83 343.272 427.581L343.39 422.766Z" fill="#E81255"/>
<path d="M331.018 422.675C333.93 419.25 338.785 417.151 343.534 416.98L343.652 412.192C337.656 412.231 331.569 414.658 327.698 419.185C325.691 421.533 328.997 425.049 331.031 422.675H331.018Z" fill="#E81255"/>
</g>
<path opacity="0.55" d="M279.364 243.075C256.535 242.222 237.341 260.039 236.488 282.867C235.635 305.696 253.452 324.891 276.281 325.744C299.11 326.596 318.304 308.779 319.157 285.951C320.01 263.122 302.193 243.927 279.364 243.075Z" fill="#E81255"/>
<path d="M319.17 280.611C318.318 303.44 299.123 321.257 276.294 320.404C253.465 319.551 235.648 300.356 236.501 277.528C237.354 254.699 256.549 236.882 279.377 237.735C302.206 238.588 320.023 257.782 319.17 280.611Z" fill="white"/>
<path fill-rule="evenodd" clip-rule="evenodd" d="M264.998 287.053C264.972 284.114 264.972 281.175 264.919 278.223C264.906 277.423 265.05 277.016 265.982 277.095C267.241 277.2 268.186 276.439 268.776 275.494C269.76 273.907 270.587 272.214 271.4 270.522C272.174 268.895 272.725 267.137 273.591 265.562C274.182 264.486 275.021 263.411 276.005 262.715C278.538 260.931 279.587 258.412 280.02 255.539C280.283 253.82 280.361 252.075 280.44 250.343C280.479 249.293 281.227 249.175 281.923 249.123C283.615 248.992 284.993 249.713 285.885 251.143C287.59 253.872 287.918 256.772 286.672 259.763C285.885 261.666 284.94 263.502 284.114 265.392C283.799 266.113 283.523 266.874 283.405 267.648C283.169 269.052 283.471 269.354 284.875 269.341C288.391 269.328 291.92 269.288 295.436 269.275C298.152 269.262 300.12 270.915 300.645 273.565C300.947 275.061 300.277 276.203 299.333 277.187C298.742 277.803 298.742 278.236 299.267 278.84C299.779 279.443 300.238 280.099 300.684 280.755C301.222 281.556 300.907 282.185 300.238 282.736C299.871 283.038 299.477 283.3 299.162 283.642C298.467 284.35 298.178 285.15 298.69 286.108C298.847 286.397 298.939 286.712 299.084 287C300.002 288.903 299.923 289.559 298.27 290.949C297.194 291.855 296.669 292.878 296.591 294.308C296.46 296.762 294.505 298.585 292.025 298.94C286.764 299.7 281.529 299.372 276.294 298.73C272.909 298.31 269.55 297.785 266.165 297.352C265.339 297.247 265.076 296.88 265.076 296.079C265.09 293.062 265.05 290.057 265.024 287.04C265.024 287.04 264.998 287.04 264.985 287.04L264.998 287.053Z" fill="#E81255"/>
<path fill-rule="evenodd" clip-rule="evenodd" d="M262.662 287.473C262.689 290.7 262.676 293.928 262.741 297.155C262.767 298.126 262.387 298.441 261.468 298.428C259.186 298.428 256.903 298.428 254.607 298.48C253.688 298.493 253.334 298.152 253.321 297.195C253.308 290.661 253.255 284.14 253.19 277.606C253.19 276.609 253.544 276.242 254.528 276.255C256.772 276.281 259.028 276.268 261.272 276.203C262.282 276.176 262.597 276.583 262.597 277.554C262.584 280.86 262.623 284.153 262.649 287.46L262.662 287.473Z" fill="#E81255"/>
<path opacity="0.44" d="M366.481 169.366C372.865 169.366 378.04 164.191 378.04 157.807C378.04 151.424 372.865 146.249 366.481 146.249C360.097 146.249 354.922 151.424 354.922 157.807C354.922 164.191 360.097 169.366 366.481 169.366Z" fill="#E81255"/>
<path d="M376.117 155.802C377.02 149.483 372.629 143.628 366.309 142.725C359.99 141.822 354.135 146.213 353.232 152.533C352.329 158.853 356.721 164.707 363.04 165.61C369.36 166.513 375.215 162.122 376.117 155.802Z" fill="#5999F1"/>
<path d="M360.695 146.642H366.35V162.19H363.857V148.978H360.695V146.642Z" fill="white"/>
<path opacity="0.44" d="M649.23 358.504C655.614 358.504 660.789 353.329 660.789 346.945C660.789 340.562 655.614 335.387 649.23 335.387C642.846 335.387 637.671 340.562 637.671 346.945C637.671 353.329 642.846 358.504 649.23 358.504Z" fill="#E81255"/>
<path d="M658.864 345.211C659.887 338.91 655.608 332.972 649.307 331.949C643.006 330.927 637.068 335.206 636.045 341.507C635.023 347.808 639.302 353.745 645.603 354.768C651.904 355.791 657.841 351.512 658.864 345.211Z" fill="#5999F1"/>
<path d="M643.431 335.793H649.086V351.34H646.593V338.129H643.431V335.793Z" fill="white"/>
<path opacity="0.44" d="M291.697 379.942C298.081 379.942 303.256 374.767 303.256 368.384C303.256 362 298.081 356.825 291.697 356.825C285.313 356.825 280.138 362 280.138 368.384C280.138 374.767 285.313 379.942 291.697 379.942Z" fill="#E81255"/>
<path d="M301.355 366.456C302.266 360.137 297.882 354.277 291.563 353.367C285.245 352.456 279.385 356.84 278.474 363.159C277.564 369.477 281.948 375.337 288.266 376.248C294.585 377.158 300.445 372.774 301.355 366.456Z" fill="#5999F1"/>
<path d="M285.911 357.219H291.566V372.766H289.073V359.554H285.911V357.219Z" fill="white"/>
<path opacity="0.44" d="M651.802 423.527C635.926 415.93 616.915 422.635 609.319 438.51C601.723 454.372 608.427 473.396 624.302 480.992C640.164 488.589 659.188 481.885 666.785 466.009C674.381 450.134 667.677 431.123 651.802 423.527Z" fill="#E81255"/>
<path d="M666.667 461.758C659.07 477.62 640.046 484.338 624.184 476.741C608.309 469.145 601.605 450.121 609.201 434.259C616.798 418.384 635.822 411.679 651.684 419.276C667.546 426.872 674.263 445.896 666.667 461.758Z" fill="white"/>
<path d="M655.468 432.362L619.696 433.062L620.293 463.56L656.064 462.861L655.468 432.362Z" fill="#E81255"/>
<path d="M630.416 437.788C630.39 436.187 631.702 435.781 633.342 436.883L646.764 445.896C648.404 446.998 648.443 448.848 646.842 450.016L633.788 459.554C632.187 460.722 630.862 460.368 630.836 458.754L630.429 437.788H630.416Z" fill="#F4F4F4"/>
<path opacity="0.44" d="M432.829 87.4316C415.655 86.0147 400.567 98.7804 399.15 115.968C397.733 133.142 410.499 148.23 427.686 149.647C444.86 151.077 459.948 138.298 461.365 121.124C462.782 103.937 450.016 88.8617 432.829 87.4448V87.4316Z" fill="#E81255"/>
<path d="M460.158 117.791C458.728 134.965 443.653 147.744 426.479 146.314C409.292 144.897 396.526 129.809 397.943 112.635C399.36 95.4479 414.448 82.6822 431.622 84.0991C448.796 85.5292 461.575 100.604 460.158 117.778V117.791Z" fill="white"/>
<path d="M444.676 121.255C446.329 118.749 447.392 115.81 447.654 112.622C448.494 102.441 440.924 93.5063 430.743 92.6666C420.562 91.8138 411.627 99.3841 410.787 109.565C410.328 115.049 412.309 120.153 415.825 123.84L427.148 139.518C427.148 139.518 443.272 123.289 444.401 121.662L444.742 121.308L444.689 121.242L444.676 121.255Z" fill="#E81255"/>
<path d="M439.992 111.73C439.507 117.66 434.285 122.082 428.355 121.583C422.412 121.098 418.003 115.876 418.502 109.946C419 104.002 424.196 99.5941 430.139 100.093C436.083 100.591 440.491 105.8 439.992 111.73Z" fill="white"/>
<path opacity="0.44" d="M622.872 191.552C608.952 197.128 602.182 212.924 607.758 226.845C613.334 240.765 629.13 247.535 643.051 241.959C656.971 236.383 663.728 220.587 658.165 206.666C652.589 192.746 636.792 185.976 622.872 191.552Z" fill="#E81255"/>
<path d="M657.325 202.52C662.901 216.441 656.131 232.237 642.211 237.813C628.291 243.389 612.494 236.619 606.918 222.699C601.342 208.779 608.112 192.982 622.032 187.406C635.953 181.83 651.749 188.6 657.325 202.52Z" fill="white"/>
<path fill-rule="evenodd" clip-rule="evenodd" d="M627.805 225.388L631.138 231.201L636.425 225.795" fill="#E81255"/>
<path fill-rule="evenodd" clip-rule="evenodd" d="M650.804 220.823C650.804 223.513 648.64 225.691 645.95 225.691L618.228 225.73C615.538 225.73 613.36 223.565 613.36 220.875L613.334 204.672C613.334 201.983 615.499 199.805 618.188 199.805L645.911 199.765C648.6 199.765 650.778 201.93 650.778 204.62L650.804 220.823Z" fill="#E81255"/>
<path d="M640.112 210.222C639.954 209.028 638.983 207.244 637.789 206.771C636.254 206.181 634.181 207.073 633.106 208.241C632.594 208.805 632.017 209.802 632.174 210.734C632.174 209.96 631.689 209.369 631.361 208.792C630.508 207.283 629.406 206.115 627.543 206.378C626.165 206.575 625.247 207.401 624.643 208.634C624.026 209.907 623.869 211.206 624.407 212.557C624.801 213.528 625.365 214.394 626.008 215.208C627.595 217.228 629.484 218.96 631.466 220.587C631.623 220.718 631.728 220.705 631.885 220.587C632.607 220.062 633.381 219.55 634.103 219.012C634.667 218.593 635.218 218.186 635.756 217.74C636.845 216.834 637.907 215.785 638.787 214.67C639.823 213.358 640.348 211.901 640.112 210.209V210.222Z" fill="white"/>
<path opacity="0.44" d="M729.354 304.253C726.113 320.535 710.278 331.11 693.996 327.869C677.701 324.628 667.139 308.792 670.38 292.51C673.62 276.215 689.456 265.654 705.738 268.894C722.02 272.135 732.595 287.971 729.354 304.266V304.253Z" fill="#E81255"/>
<path d="M729.354 301.209C726.113 317.491 710.278 328.066 693.996 324.825C677.701 321.584 667.139 305.748 670.38 289.467C673.62 273.172 689.456 262.61 705.738 265.851C722.02 269.091 732.595 284.927 729.354 301.222V301.209Z" fill="white"/>
<path d="M718.333 309.396C716.26 300.71 709.044 294.255 700.477 294.255H698.43C689.863 294.255 682.634 300.724 680.574 309.396H718.346H718.333Z" fill="#E81255"/>
<path d="M699.532 291.579C704.336 291.579 708.231 287.684 708.231 282.88C708.231 278.076 704.336 274.182 699.532 274.182C694.728 274.182 690.834 278.076 690.834 282.88C690.834 287.684 694.728 291.579 699.532 291.579Z" fill="#2F2D2E"/>
<path opacity="0.2" d="M498.284 577.32C561.143 577.32 612.1 564.338 612.1 548.324C612.1 532.311 561.143 519.329 498.284 519.329C435.426 519.329 384.468 532.311 384.468 548.324C384.468 564.338 435.426 577.32 498.284 577.32Z" fill="#E81255"/>
<path d="M433.104 170.271H557.836C575.128 170.271 589.154 184.31 589.154 201.589V533.735C589.154 551.027 575.115 565.052 557.836 565.052H433.104C415.812 565.052 401.787 551.014 401.787 533.735V201.589C401.787 184.297 415.825 170.271 433.104 170.271Z" fill="#4D4D4D"/>
<path d="M401.787 494.296L589.154 394.125V379.063L401.787 479.234V494.296Z" fill="#808080"/>
<path d="M401.787 334.153V456.287L589.154 356.129V233.995L401.787 334.153Z" fill="#808080"/>
<path d="M556.511 173.42H434.429C417.503 173.42 403.781 187.142 403.781 204.069V529.156C403.781 546.083 417.503 559.804 434.429 559.804H556.511C573.438 559.804 587.159 546.083 587.159 529.156V204.069C587.159 187.142 573.438 173.42 556.511 173.42Z" stroke="#666666" stroke-miterlimit="10"/>
<path d="M437.473 179.062H551.394C568.595 179.062 582.567 193.035 582.567 210.235V524.498C582.567 541.699 568.595 555.671 551.394 555.671H439.822C422.621 555.671 408.649 541.699 408.649 524.498V207.886C408.649 191.985 421.559 179.062 437.473 179.062Z" fill="#E81255"/>
<path d="M582.554 227.842H408.649V515.708H582.554V227.842Z" fill="white"/>
<path d="M449.045 171.059V180.991C449.045 185.976 453.125 190.057 458.111 190.057H535.585C540.57 190.057 544.651 185.976 544.651 180.991V171.059H449.045Z" fill="#4D4D4D"/>
<path d="M532.278 183.194H477.647C476.676 183.194 475.889 182.407 475.889 181.436C475.889 180.465 476.676 179.678 477.647 179.678H532.278C533.249 179.678 534.036 180.465 534.036 181.436C534.036 182.407 533.249 183.194 532.278 183.194Z" fill="#636363"/>
<path d="M467.072 182.014C467.072 183.155 466.154 184.074 465.012 184.074C463.871 184.074 462.952 183.155 462.952 182.014C462.952 180.873 463.871 179.954 465.012 179.954C466.154 179.954 467.072 180.873 467.072 182.014Z" fill="#636363"/>
<path d="M448.085 328.394C447.383 328.394 446.825 328.565 446.411 328.907C446.015 329.231 445.817 329.672 445.817 330.23C445.817 330.77 446.06 331.202 446.546 331.526C447.05 331.85 448.193 332.237 449.975 332.687C451.775 333.119 453.17 333.776 454.16 334.658C455.15 335.54 455.645 336.827 455.645 338.519C455.645 340.211 455.006 341.588 453.728 342.65C452.468 343.694 450.803 344.216 448.733 344.216C445.745 344.216 443.054 343.109 440.66 340.895L443.171 337.817C445.205 339.599 447.086 340.49 448.814 340.49C449.588 340.49 450.191 340.328 450.623 340.004C451.073 339.662 451.298 339.212 451.298 338.654C451.298 338.078 451.064 337.628 450.596 337.304C450.128 336.962 449.201 336.62 447.815 336.278C445.619 335.756 444.008 335.081 442.982 334.253C441.974 333.407 441.47 332.093 441.47 330.311C441.47 328.511 442.109 327.125 443.387 326.153C444.683 325.181 446.294 324.695 448.22 324.695C449.48 324.695 450.74 324.911 452 325.343C453.26 325.775 454.358 326.387 455.294 327.179L453.161 330.257C451.523 329.015 449.831 328.394 448.085 328.394ZM473.673 334.469C473.673 332.777 473.133 331.337 472.053 330.149C470.973 328.961 469.641 328.367 468.057 328.367C466.491 328.367 465.168 328.961 464.088 330.149C463.008 331.337 462.468 332.777 462.468 334.469C462.468 336.143 463.008 337.574 464.088 338.762C465.168 339.932 466.491 340.517 468.057 340.517C469.641 340.517 470.973 339.932 472.053 338.762C473.133 337.574 473.673 336.143 473.673 334.469ZM475.104 341.408C473.196 343.262 470.847 344.189 468.057 344.189C465.267 344.189 462.918 343.262 461.01 341.408C459.102 339.536 458.148 337.214 458.148 334.442C458.148 331.67 459.102 329.357 461.01 327.503C462.918 325.631 465.267 324.695 468.057 324.695C470.847 324.695 473.196 325.631 475.104 327.503C477.012 329.357 477.966 331.67 477.966 334.442C477.966 337.214 477.012 339.536 475.104 341.408ZM490.202 340.274C492.272 340.274 493.964 339.455 495.278 337.817L497.978 340.598C495.836 343.01 493.307 344.216 490.391 344.216C487.493 344.216 485.099 343.298 483.209 341.462C481.337 339.626 480.401 337.313 480.401 334.523C480.401 331.715 481.355 329.375 483.263 327.503C485.189 325.631 487.538 324.695 490.31 324.695C493.406 324.695 495.998 325.874 498.086 328.232L495.467 331.202C494.135 329.546 492.479 328.718 490.499 328.718C488.915 328.718 487.556 329.24 486.422 330.284C485.306 331.31 484.748 332.705 484.748 334.469C484.748 336.215 485.279 337.619 486.341 338.681C487.403 339.743 488.69 340.274 490.202 340.274ZM501.31 325.127H505.522V344H501.31V325.127ZM523.616 344L521.861 339.923H513.95L512.195 344H507.713L515.867 325.127H519.944L528.098 344H523.616ZM517.919 330.743L515.543 336.224H520.268L517.919 330.743ZM530.288 344V325.127H534.5V340.247H542.546V344H530.288Z" fill="#E81255"/>
<path d="M461.107 377.8L455.437 389.26H452.647L447.007 377.8V391H442.327V370.03H448.657L454.057 381.55L459.487 370.03H465.787V391H461.107V377.8ZM486.07 370.03V374.2H475.63V378.52H485.02V382.51H475.63V386.86H486.4V391H470.95V370.03H486.07ZM497.989 370.03C501.729 370.03 504.599 370.95 506.599 372.79C508.599 374.61 509.599 377.15 509.599 380.41C509.599 383.67 508.619 386.25 506.659 388.15C504.719 390.05 501.749 391 497.749 391H490.579V370.03H497.989ZM498.229 386.86C500.369 386.86 502.009 386.32 503.149 385.24C504.309 384.16 504.889 382.59 504.889 380.53C504.889 378.47 504.309 376.89 503.149 375.79C502.009 374.67 500.249 374.11 497.869 374.11H495.259V386.86H498.229ZM513.636 370.03H518.316V391H513.636V370.03ZM538.419 391L536.469 386.47H527.679L525.729 391H520.749L529.809 370.03H534.339L543.399 391H538.419ZM532.089 376.27L529.449 382.36H534.699L532.089 376.27Z" fill="#E81255"/>
<path d="M443.647 423H442.113V413.913H444.505L447.248 419.62L449.991 413.913H452.37V423H450.836V415.902L447.664 422.207H446.806L443.647 415.902V423ZM456.184 420.933L455.274 423H453.636L457.64 413.913H459.278L463.282 423H461.644L460.734 420.933H456.184ZM460.11 419.516L458.459 415.772L456.808 419.516H460.11ZM471.358 413.913H472.892V423H471.228L466.08 416.37V423H464.546V413.913H466.08L471.358 420.699V413.913ZM476.7 420.933L475.79 423H474.152L478.156 413.913H479.794L483.798 423H482.16L481.25 420.933H476.7ZM480.626 419.516L478.975 415.772L477.324 419.516H480.626ZM491.353 418.58H492.887V421.687C492.029 422.632 490.803 423.104 489.208 423.104C487.865 423.104 486.738 422.662 485.828 421.778C484.927 420.894 484.476 419.776 484.476 418.424C484.476 417.072 484.936 415.945 485.854 415.044C486.782 414.143 487.9 413.692 489.208 413.692C490.517 413.692 491.605 414.073 492.471 414.836L491.652 416.006C491.297 415.703 490.937 415.495 490.573 415.382C490.218 415.261 489.802 415.2 489.325 415.2C488.407 415.2 487.635 415.499 487.011 416.097C486.387 416.686 486.075 417.466 486.075 418.437C486.075 419.399 486.379 420.175 486.985 420.764C487.592 421.345 488.324 421.635 489.182 421.635C490.049 421.635 490.773 421.449 491.353 421.076V418.58ZM501.283 413.913V415.356H496.434V417.761H500.789V419.126H496.434V421.557H501.439V423H494.9V413.913H501.283ZM504.94 423H503.406V413.913H505.798L508.541 419.62L511.284 413.913H513.663V423H512.129V415.902L508.957 422.207H508.099L504.94 415.902V423ZM522.573 413.913V415.356H517.724V417.761H522.079V419.126H517.724V421.557H522.729V423H516.19V413.913H522.573ZM531.508 413.913H533.042V423H531.378L526.23 416.37V423H524.696V413.913H526.23L531.508 420.699V413.913ZM538.995 415.317V423H537.461V415.317H534.705V413.913H541.751V415.317H538.995Z" fill="#E81255"/>
<path d="M418.908 308.91H572.832V265.457H418.908V308.91Z" fill="#E9EAEA"/>
<path d="M457.284 270.705H425.796V302.193H457.284V270.705Z" fill="white"/>
<path d="M566.18 271.584H463.844V277.711H566.18V271.584Z" fill="white"/>
<path d="M566.18 283.392H463.844V289.519H566.18V283.392Z" fill="white"/>
<path d="M566.18 295.2H463.844V301.327H566.18V295.2Z" fill="white"/>
<path d="M572.819 438.353H418.895V448.14H572.819V438.353Z" fill="#E9EAEA"/>
<path d="M572.819 234.297H418.895V257.795H572.819V234.297Z" fill="#E9EAEA"/>
<path d="M569.684 237.236H421.637V254.856H569.684V237.236Z" fill="white"/>
<path d="M572.819 469.302H418.895V471.651H572.819V469.302Z" fill="#E9EAEA"/>
<path d="M572.819 475.758H418.895V478.106H572.819V475.758Z" fill="#E9EAEA"/>
<path d="M572.819 482.226H418.895V484.574H572.819V482.226Z" fill="#E9EAEA"/>
<path d="M557.206 247.811L550.41 252.166C549.833 252.534 549.059 252.363 548.692 251.786C548.324 251.209 548.495 250.435 549.072 250.067L555.868 245.711C556.445 245.344 557.22 245.515 557.587 246.092C557.954 246.669 557.784 247.443 557.206 247.811Z" fill="#A8C4D8"/>
<path d="M564.317 244.294C564.317 247.378 561.811 249.884 558.728 249.884C555.645 249.884 553.139 247.378 553.139 244.294C553.139 241.211 555.645 238.705 558.728 238.705C561.811 238.705 564.317 241.211 564.317 244.294Z" fill="#E81255"/>
<path d="M564.317 244.294C564.317 247.378 561.811 249.884 558.728 249.884C555.645 249.884 553.139 247.378 553.139 244.294C553.139 241.211 555.645 238.705 558.728 238.705C561.811 238.705 564.317 241.211 564.317 244.294Z" fill="#A8C4D8"/>
<path d="M562.704 244.294C562.704 246.499 560.919 248.283 558.715 248.283C556.511 248.283 554.727 246.499 554.727 244.294C554.727 242.09 556.511 240.306 558.715 240.306C560.919 240.306 562.704 242.09 562.704 244.294Z" fill="white"/>
<path d="M495.332 547.773C502.578 547.773 508.452 541.899 508.452 534.653C508.452 527.407 502.578 521.533 495.332 521.533C488.086 521.533 482.212 527.407 482.212 534.653C482.212 541.899 488.086 547.773 495.332 547.773Z" fill="#2F2D2E"/>
<g opacity="0.4">
<path d="M434.272 555.147L582.554 463.464V456.93L427.227 552.969C429.457 553.966 431.805 554.7 434.272 555.147Z" fill="white"/>
<path d="M412.69 539.77C414.802 543.496 417.662 546.75 421.06 549.334L582.567 449.478V434.744L412.703 539.783L412.69 539.77Z" fill="white"/>
<path d="M527.831 179.062L408.649 252.757V267.491L551.644 179.075C551.552 179.075 551.473 179.075 551.381 179.075H527.831V179.062Z" fill="white"/>
<path d="M408.649 281.148V286.724L571.888 185.792C570.523 184.73 569.054 183.772 567.492 182.932L408.649 281.148Z" fill="white"/>
</g>
</g>
</g>
</svg>
